<?xml version="1.0" encoding="UTF-8"?>
<svg width="216px" height="80px" viewBox="0 0 216 80" version="1.1" xmlns="http://www.w3.org/2000/svg" xmlns:xlink="http://www.w3.org/1999/xlink">
    <!-- Generator: Sketch 50 (54983) - http://www.bohemiancoding.com/sketch -->
    <title>AMG C63-Headline&amp;Subheadline-D</title>
    <desc>Created with Sketch.</desc>
    <defs></defs>
    <g id="Page-1" stroke="none" stroke-width="1" fill="none" fill-rule="evenodd">
        <g id="AMG-C63-Headline&amp;Subheadline-D" transform="translate(-22.000000, 0.000000)" fill="#FFFFFF">
            <g transform="translate(8.000000, 0.000000)">
                <rect id="Rectangle" x="107" y="79" width="30" height="1"></rect>
                <path d="M58.7934815,11.6484375 C58.7934815,11.5117181 58.8652581,11.4877925 59.0088135,11.5766602 C59.6308869,11.9799825 60.0034418,12.3542463 60.1264893,12.6994629 C60.2495368,13.0446795 60.2973878,13.3505846 60.270044,13.6171875 C60.249536,13.8154307 60.1931401,13.9914543 60.1008545,14.1452637 C60.0085689,14.299073 59.8633067,14.3811035 59.6650635,14.3913574 C59.4668203,14.4016114 59.3198491,14.3110361 59.2241455,14.1196289 C59.1694577,14.0307613 59.1352784,13.9179694 59.1216065,13.78125 C59.1079345,13.6445306 59.1028076,13.4394545 59.1062256,13.1660156 C59.1096436,12.8925768 59.1010987,12.6840827 59.0805908,12.5405273 C59.0600829,12.4448237 59.0071049,12.273927 58.9216553,12.027832 C58.8362056,11.7817371 58.7934815,11.6552735 58.7934815,11.6484375 Z M58.8652588,7.32128906 C58.9062746,7.26660129 59.0276113,7.30078063 59.2292725,7.42382812 C59.4309336,7.54687562 59.6103752,7.66479436 59.7676025,7.77758789 C59.9248299,7.89038142 60.0564204,8.04589745 60.1623779,8.24414062 C60.2683355,8.4423838 60.3366942,8.66796749 60.3674561,8.92089844 C60.3982179,9.17382939 60.3623296,9.41308481 60.25979,9.63867188 C60.1572505,9.86425894 60.0000255,9.98217768 59.7881104,9.99243164 C59.5761952,10.0026856 59.4189702,9.90185653 59.3164307,9.68994141 C59.2617429,9.58056586 59.2309815,9.4062512 59.2241455,9.16699219 L59.2036377,8.66455078 C59.1831298,8.28173637 59.121607,7.99975677 59.0190674,7.81860352 C58.9165278,7.63745027 58.8618409,7.51440462 58.8550049,7.44946289 C58.8481689,7.38452116 58.8515869,7.34179698 58.8652588,7.32128906 Z M53.266626,5.71142578 L51.185083,5.71142578 C51.0688715,5.71142578 51.0073487,5.61743258 51.0005127,5.42944336 C50.9936767,5.24145414 51.0551996,5.14746094 51.185083,5.14746094 L53.2768799,5.14746094 L53.2768799,2.04052734 L53.2358643,0.379394531 C53.2563722,0.352050645 53.2734619,0.334960972 53.2871338,0.328125 C53.3008057,0.321289028 53.3794182,0.34521457 53.5229736,0.399902344 L54.7739502,0.881835938 C54.9106696,0.936523711 54.9106696,1.04247968 54.7739502,1.19970703 L54.3843018,1.66113281 L54.3843018,5.14746094 L54.7226807,5.14746094 L55.0713135,4.53222656 C55.1601811,4.38183519 55.219995,4.30151372 55.2507568,4.29125977 C55.2815187,4.28100581 55.4131092,4.40576042 55.6455322,4.66552734 L56.0864502,5.17822266 C56.2505135,5.38330181 56.3188722,5.52514609 56.2915283,5.60375977 C56.2641844,5.68237344 56.2129154,5.72167969 56.1377197,5.72167969 L54.3843018,5.72167969 L54.3843018,8.22363281 C55.2798141,8.51757959 55.7993401,8.88329859 55.9428955,9.32080078 C56.0864509,9.75830297 56.1479737,10.0624991 56.1274658,10.2333984 L56.106958,10.387207 L56.7734619,10.387207 C56.7802979,10.2846675 56.7837158,10.206055 56.7837158,10.1513672 L56.8862549,8.78759766 C56.9341067,8.06982063 56.9648681,7.50927936 56.97854,7.10595703 L57.0093018,6.10107422 C56.8178946,6.47021669 56.5991467,6.87011503 56.3530518,7.30078125 L56.0659424,7.80322266 C55.9839107,7.95361403 55.91897,8.00659202 55.8711182,7.9621582 C55.8232664,7.91772439 55.8232664,7.82373119 55.8711182,7.68017578 L56.0761963,7.0546875 C56.2470956,6.51464574 56.4214103,5.90112648 56.5991455,5.21411133 C56.7768808,4.52709617 56.9033444,4.01953289 56.97854,3.69140625 L57.2143799,2.64550781 C57.3305914,2.11230202 57.402368,1.75683683 57.4297119,1.57910156 L57.5630127,0.758789063 L57.6040283,0.440917969 C57.6177003,0.420410054 57.6416258,0.406738315 57.6758057,0.399902344 L57.9424072,0.594726563 L59.0908447,1.34326172 C59.1865483,1.41162144 59.2395263,1.48510703 59.2497803,1.5637207 C59.2600342,1.64233438 59.2036383,1.72265584 59.0805908,1.8046875 L58.8652588,1.94824219 L58.1372315,3.67089844 L61.9721924,3.67089844 L62.4233643,2.74804688 C62.4712161,2.63867133 62.5122313,2.57885747 62.5464111,2.56860352 C62.580591,2.55834956 62.63186,2.59081994 62.7002197,2.66601563 L63.7461182,3.84521484 C63.8213139,3.94091845 63.8537842,4.02636681 63.8435303,4.1015625 C63.8332763,4.17675819 63.8008059,4.21435547 63.7461182,4.21435547 L63.1001221,4.21435547 L63.1001221,4.22460938 L57.9013916,4.22460938 L57.2143799,5.72167969 L58.2602783,6.41894531 L61.4389893,6.41894531 L61.7466065,5.72167969 C61.8012942,5.59179623 61.8423094,5.52172857 61.8696533,5.51147461 C61.8969972,5.50122065 61.961938,5.54394483 62.0644775,5.63964844 L62.997583,6.52148438 C63.0659427,6.59668006 63.101831,6.66674772 63.105249,6.73168945 C63.108667,6.79663118 63.0659428,6.87695265 62.9770752,6.97265625 L62.7002197,7.28027344 L62.6079346,10.387207 L62.7104736,10.387207 L63.0385986,9.79248047 C63.1411382,9.59423729 63.2129148,9.49340822 63.2539307,9.48999023 C63.2949465,9.48657225 63.3633052,9.53955023 63.4590088,9.64892578 L64.1767822,10.5307617 C64.2519779,10.6401373 64.2861573,10.7341305 64.2793213,10.8127441 C64.2724853,10.8913578 64.2417239,10.9306641 64.1870361,10.9306641 L63.212915,10.9306641 L63.212915,10.940918 L62.5874268,10.940918 C62.5805908,11.0981453 62.572046,11.4433567 62.561792,11.9765625 C62.551538,12.5097683 62.5361573,12.9985329 62.5156494,13.4428711 L62.454126,14.550293 L62.454126,14.7758789 L62.5156494,14.7758789 L62.88479,14.0375977 C62.9463138,13.9145502 62.9907469,13.8496094 63.0180908,13.8427734 C63.0454347,13.8359375 63.1103755,13.8906244 63.212915,14.0068359 L63.869165,14.7553711 C64.0537363,14.9741222 64.1340577,15.1210934 64.1101318,15.1962891 C64.0862059,15.2714848 64.0434818,15.309082 63.981958,15.309082 L62.782251,15.309082 L62.782251,15.3398438 L62.4028565,15.3398438 C62.3755126,15.510743 62.3567139,15.6474604 62.34646,15.75 C62.336206,15.8525396 62.3225343,15.9755852 62.3054443,16.1191406 C62.2883544,16.262696 62.2405033,16.5002425 62.1618897,16.8317871 C62.083276,17.1633317 61.9892828,17.4401844 61.8799072,17.6623535 C61.7705317,17.8845226 61.5927991,18.1049794 61.3467041,18.3237305 C61.1006091,18.5424816 60.8066668,18.675781 60.4648682,18.7236328 C60.3828365,18.7373048 60.3298585,18.7355958 60.3059326,18.7185059 C60.2820067,18.7014159 60.2512453,18.593751 60.2136475,18.3955078 C60.1760496,18.1972646 60.1093999,18.0109872 60.0136963,17.8366699 C59.9179927,17.6623526 59.8325443,17.5427249 59.7573486,17.4777832 C59.682153,17.4128415 59.5830329,17.3461917 59.4599854,17.277832 L59.0498291,17.0625 C59.0019773,17.0419921 58.967798,17.0095217 58.94729,16.9650879 C58.9267821,16.9206541 58.9233642,16.872803 58.9370361,16.8215332 C58.9507081,16.7702634 58.9917233,16.7480468 59.060083,16.7548828 L59.4804932,16.8369141 C60.1504184,16.9736335 60.5691154,16.9428721 60.7365967,16.7446289 C60.904078,16.5463857 61.0219967,16.2626972 61.0903565,15.8935547 L61.1723877,15.3398438 L57.4912354,15.3398438 L57.2143799,15.8012695 C57.1186763,15.9584969 57.0571535,16.0405273 57.0298096,16.0473633 C57.0024657,16.0541993 56.9443608,16.0097661 56.8554932,15.9140625 L56.2402588,15.2783203 C56.0761955,15.107421 55.9924561,15.004883 55.9890381,14.9707031 C55.9856201,14.9365233 55.990747,14.9023439 56.004419,14.8681641 L56.1992432,14.6630859 L56.3940674,14.4169922 C56.4760991,13.6992152 56.5410398,13.1096214 56.5888916,12.6481934 C56.6367434,12.1867653 56.6811766,11.6176792 56.7221924,10.940918 L55.9223877,10.940918 C55.7651604,11.1049813 55.6028085,11.1853028 55.4353272,11.1818848 C55.2678459,11.1784668 55.1448002,11.113526 55.0661865,10.9870605 C54.9875729,10.8605951 54.9414307,10.7238777 54.9277588,10.5769043 C54.9140869,10.4299309 54.905542,10.2231459 54.902124,9.95654297 C54.898706,9.68994007 54.8730715,9.45239362 54.8252197,9.24389648 C54.7773679,9.03539935 54.7055913,8.89013713 54.6098877,8.80810547 L54.3843018,8.60302734 L54.3843018,15.8935547 L54.4458252,18.046875 C54.4253173,18.1425786 54.4013917,18.2211911 54.3740479,18.2827148 C54.346704,18.3442386 54.2680915,18.4211421 54.138208,18.5134277 C54.0083246,18.6057134 53.8425547,18.6569824 53.6408936,18.6672363 C53.4392324,18.6774903 53.3161868,18.639893 53.2717529,18.5544434 C53.2273191,18.4689937 53.1982667,18.3647467 53.1845947,18.2416992 L53.2461182,16.2114258 L53.2461182,10.828125 L52.6565186,11.9816895 C52.4206775,12.4431175 52.2070566,12.8464338 52.0156494,13.1916504 C51.8242422,13.536867 51.6994876,13.7658686 51.6413818,13.8786621 C51.5832761,13.9914556 51.5405519,14.0683592 51.513208,14.109375 L51.3081299,14.4477539 C51.2466061,14.5502935 51.1919192,14.575928 51.1440674,14.5246582 C51.0962156,14.4733884 51.0962156,14.3862311 51.1440674,14.2631836 L51.3491455,13.6787109 C51.8550074,12.2705008 52.2651596,10.8452221 52.5796143,9.40283203 C52.894069,7.96044201 53.1230706,6.72998556 53.266626,5.71142578 Z M57.5425049,14.7758789 L61.2339111,14.7758789 C61.2339111,14.7075192 61.2458739,14.5896004 61.2697998,14.4221191 C61.2937257,14.2546378 61.3159423,13.8872099 61.3364502,13.3198242 L61.4184815,10.940918 L57.8808838,10.940918 L57.5425049,14.7758789 Z M57.9116455,10.387207 L61.4492432,10.387207 C61.4492432,10.1957998 61.4509521,10.0522466 61.4543701,9.95654297 C61.4577881,9.86083937 61.462915,9.63696465 61.469751,9.28491211 C61.476587,8.93285957 61.4782959,8.52954329 61.4748779,8.07495117 C61.47146,7.62035906 61.469751,7.33496152 61.469751,7.21875 L61.469751,6.99316406 L58.1577393,6.99316406 L57.9116455,10.387207 Z M68.7446045,3.33251953 L68.7497314,3.33251953 L69.6623291,3.59912109 C69.8605722,3.66064484 69.9733641,3.70507799 70.000708,3.73242188 C70.0280519,3.75976576 70.0434326,3.79052717 70.0468505,3.82470703 C70.0502685,3.85888689 69.9972905,3.94091732 69.887915,4.07080078 L69.6623291,4.34765625 L69.6623291,4.921875 L72.1335205,4.921875 L72.1335205,4.47070312 C72.1335205,4.01269302 72.1249756,3.73584032 72.1078857,3.64013672 C72.0907958,3.54443312 72.0856689,3.49999997 72.0925048,3.50683594 L72.3283447,3.45556641 L73.3947509,3.71191406 C73.5314704,3.74609392 73.604956,3.78027327 73.6152099,3.81445312 C73.6254639,3.84863298 73.6322997,3.87255853 73.6357177,3.88623047 C73.6391357,3.89990241 73.6271729,3.93408176 73.5998291,3.98876953 C73.5724852,4.0434573 73.5348879,4.09130839 73.4870361,4.13232422 L73.2204345,4.36816406 L73.2204345,4.921875 L73.8049072,4.921875 L74.0612548,4.51171875 C74.1979743,4.29296766 74.2868406,4.18017582 74.3278564,4.17333984 L74.5842041,4.47070312 L75.1789306,5.13720703 C75.2199465,5.18505883 75.2626706,5.25341752 75.3071045,5.34228516 C75.3515383,5.43115279 75.3019782,5.47558594 75.1584228,5.47558594 L73.2204345,5.47558594 L73.2204345,6.62402344 L73.9587158,6.62402344 L74.2560791,6.15234375 C74.3381107,6.01562432 74.3945066,5.94897459 74.4252685,5.95239258 C74.4560304,5.95581056 74.526098,6.02246029 74.6354736,6.15234375 L75.1174072,6.76757812 C75.2131108,6.89062562 75.2609619,6.98632778 75.2609619,7.0546875 C75.2609619,7.13671916 75.2199467,7.17773438 75.137915,7.17773438 L73.2204345,7.17773438 L73.2204345,8.40820312 L75.3429931,8.40820312 L75.7634033,7.70068359 C75.8727788,7.50927639 75.9531003,7.41699215 76.0043701,7.42382812 C76.0556399,7.4306641 76.1667227,7.52294833 76.337622,7.70068359 L77.0348877,8.46972656 C77.1784431,8.62695391 77.2502197,8.73632782 77.2502197,8.79785156 C77.2433837,8.83203142 77.226294,8.86621077 77.1989502,8.90039062 C77.1716063,8.93457048 77.1374269,8.95166016 77.0964111,8.95166016 L76.1735595,8.95166016 L76.1735595,8.97216797 L73.4562744,8.97216797 C73.5109621,9.04052769 73.6305899,9.19604371 73.8151611,9.4387207 C73.9997323,9.6813977 74.3910858,10.0283181 74.9892334,10.4794922 C75.5873809,10.9306663 76.3410355,11.2006831 77.2502197,11.2895508 L77.7526611,11.3408203 C77.8005129,11.3476563 77.8312743,11.3698729 77.8449463,11.4074707 C77.8586182,11.4450685 77.8654541,11.4689941 77.8654541,11.479248 C77.8654541,11.489502 77.8586182,11.5117186 77.8449463,11.5458984 C77.8312743,11.5800783 77.8141846,11.6040038 77.7936767,11.6176758 L77.5885986,11.7509766 C77.253636,11.9765636 77.0041268,12.268797 76.8400634,12.6276855 C76.6760001,12.9865741 76.5632083,13.1591798 76.5016845,13.1455078 C76.1803939,13.097656 75.5412401,12.6225631 74.5842041,11.7202148 L74.4406494,11.8740234 L74.4406494,13.4633789 L74.4919189,15.1655273 C74.478247,15.254395 74.4594483,15.3176268 74.4355224,15.3552246 C74.4115965,15.3928225 74.3466558,15.4423825 74.2406982,15.5039062 C74.1347406,15.56543 74.062964,15.6047362 74.0253662,15.6218262 C73.9877683,15.6389161 73.8783944,15.6560058 73.6972412,15.6730957 C73.5160879,15.6901856 73.405005,15.6679691 73.3639892,15.6064453 C73.3229734,15.5449216 73.3024658,15.4458015 73.3024658,15.309082 L73.3024658,11.1767578 L68.8522705,11.1767578 L68.8522705,15.7089844 C68.8522705,15.8251959 68.7804938,15.9448236 68.6369384,16.0678711 C68.493383,16.1909186 68.2917249,16.2524414 68.031958,16.2524414 C67.9089105,16.2592774 67.828589,16.2370608 67.7909912,16.185791 C67.7533933,16.1345212 67.7311768,16.0576177 67.7243408,15.9550781 L67.7653564,14.1811523 L67.7653564,11.5561523 C66.7946484,12.3217812 66.035867,12.854979 65.4889892,13.1557617 L64.9968017,13.4223633 C64.7848866,13.5385748 64.6515871,13.6035156 64.5968994,13.6171875 C64.5422116,13.6308594 64.5114502,13.6223146 64.5046142,13.5915527 C64.4977782,13.5607909 64.4943603,13.5317384 64.4943603,13.5043945 C64.5011963,13.4223629 64.5490474,13.3403324 64.637915,13.2583008 L64.9968017,12.9711914 L65.4274658,12.6020508 C65.9059838,12.1987285 66.4340547,11.6416051 67.0116943,10.9306641 C67.5893339,10.219723 67.9362543,9.74633907 68.0524658,9.51049805 C68.1686773,9.27465702 68.2677974,9.09521546 68.3498291,8.97216797 L65.0685791,8.97216797 C64.9523675,8.97216797 64.8891358,8.87817477 64.8788818,8.69018555 C64.8686278,8.50219633 64.9318596,8.40820312 65.0685791,8.40820312 L68.5959228,8.40820312 L68.5959228,7.17773438 L66.9963134,7.17773438 L66.8937744,7.14697266 C66.8459226,7.12646474 66.8083253,7.0974123 66.7809814,7.05981445 C66.7536375,7.02221661 66.7450927,6.94018618 66.7553466,6.8137207 C66.7656006,6.68725523 66.8185786,6.62402344 66.9142822,6.62402344 L68.5959228,6.62402344 L68.5959228,5.47558594 L67.0373291,5.47558594 L66.9450439,5.44482422 C66.8971921,5.4243163 66.8595948,5.39868179 66.8322509,5.36791992 C66.8049071,5.33715805 66.7946532,5.25512762 66.8014892,5.12182617 C66.8083252,4.98852472 66.8595942,4.921875 66.9552978,4.921875 L68.5959228,4.921875 L68.5959228,4.74755859 L68.5549072,3.39404297 L68.575415,3.33251953 L66.7912353,3.33251953 C66.7912353,3.43505911 66.7929443,3.53247024 66.7963623,3.62475586 C66.7997803,3.71704148 66.8031982,3.8725575 66.8066162,4.09130859 C66.8100342,4.31005969 66.7843996,4.54589717 66.7297119,4.79882812 C66.6750241,5.05859505 66.5673592,5.32006704 66.4067138,5.58325195 C66.2460685,5.84643686 66.0324476,5.97460941 65.7658447,5.96777344 C65.5060778,5.96777344 65.3112555,5.85669056 65.181372,5.63452148 C65.0514886,5.4123524 64.9848388,5.16284318 64.9814209,4.88598633 C64.9780029,4.60912948 65.0651602,4.34423955 65.2428955,4.09130859 C65.2565674,4.07080068 65.4052476,3.91357569 65.6889404,3.61962891 C65.9726332,3.32568212 66.1520748,2.97363486 66.2272705,2.56347656 L66.3093017,2.09179688 C66.3298096,1.9892573 66.36228,1.93457035 66.4067138,1.92773438 C66.4511476,1.9208984 66.5007077,1.99267503 66.5553955,2.14306641 L66.6681884,2.54296875 L66.7297119,2.74804688 L70.985083,2.74804688 C70.8210196,2.67285119 70.7013919,2.59423869 70.6261963,2.51220703 C70.5510006,2.43017537 70.4946046,2.33276424 70.4570068,2.2199707 C70.419409,2.10717717 70.366431,1.85425001 70.2980713,1.46118164 C70.2297115,1.06811327 70.09983,0.755372256 69.9084228,0.522949219 L69.7443603,0.328125 C69.6760006,0.252929312 69.6452392,0.179443718 69.6520752,0.107666016 C69.6589111,0.035888313 69.7238519,0 69.8468994,0 C70.2160418,0.0136719434 70.6364478,0.135008621 71.1081298,0.364013672 C71.5798119,0.593018723 71.8173583,0.904050769 71.8207763,1.29711914 C71.8241943,1.69018751 71.8019777,1.95507744 71.7541259,2.09179688 C71.6720943,2.31738394 71.5900638,2.45410132 71.5080322,2.50195312 L71.1593994,2.74804688 L75.3840088,2.74804688 L75.7018798,2.23535156 C75.8249273,2.03710838 75.9103757,1.93969725 75.9582275,1.94311523 C76.0060793,1.94653322 76.125707,2.05761609 76.3171142,2.27636719 L77.1989502,3.30175781 C77.4040293,3.54785279 77.4946046,3.73754816 77.4706787,3.87084961 C77.4467528,4.00415106 77.2929457,4.07763665 77.0092529,4.09130859 C76.7255601,4.10498054 76.4709239,4.14599575 76.2453369,4.21435547 C76.0197498,4.28271519 75.8249275,4.39208909 75.6608642,4.54248047 L75.3122314,4.87060547 C75.1550041,5.01416087 75.0746826,5.03637745 75.0712646,4.93725586 C75.0678466,4.83813427 75.0729735,4.77490248 75.0866455,4.74755859 L75.4045166,3.33251953 L68.7446045,3.33251953 Z M73.2306884,10.612793 C73.2853762,10.4760735 73.3417721,10.3786624 73.3998779,10.3205566 C73.4579837,10.2624509 73.5280513,10.2949213 73.610083,10.4179688 C73.3844959,9.87109102 73.2306888,9.38916224 73.1486572,8.97216797 L69.6008056,8.97216797 L69.8161377,9.12597656 C69.8844974,9.18066434 69.9340574,9.23022439 69.9648193,9.2746582 C69.9955812,9.31909202 70.0092529,9.3669431 70.0058349,9.41821289 C70.0024169,9.46948268 69.9596928,9.51904273 69.8776611,9.56689453 L69.6213134,9.72070312 L68.7804931,10.612793 L73.2306884,10.612793 Z M72.1335205,8.40820312 L72.1335205,7.17773438 L69.6623291,7.17773438 L69.6623291,8.40820312 L72.1335205,8.40820312 Z M72.1335205,6.62402344 L72.1335205,5.47558594 L69.6623291,5.47558594 L69.6623291,6.62402344 L72.1335205,6.62402344 Z M71.641333,12.7558594 C71.6139891,13.1728536 71.5763918,13.6940887 71.52854,14.3195801 C71.4806882,14.9450715 71.3576426,15.5312473 71.1593994,16.078125 C70.9611562,16.6250027 70.6535421,17.0505356 70.2365478,17.3547363 C69.8195535,17.6589371 69.3478786,17.9374987 68.8215088,18.1904297 C68.2951389,18.4433606 67.6594031,18.6416008 66.9142822,18.7851562 L66.2375244,18.918457 C66.1623287,18.9389649 66.095679,18.9475098 66.0375732,18.9440918 C65.9794674,18.9406738 65.9384522,18.9235841 65.9145263,18.8928223 C65.8906004,18.8620604 65.8786377,18.8193362 65.8786377,18.7646484 C65.8786377,18.7099607 65.912817,18.6621096 65.9811767,18.6210938 L66.2477783,18.5390625 L66.6989502,18.3852539 C67.2868437,18.1870107 67.8080787,17.9409194 68.2626709,17.6469727 C68.717263,17.3530259 69.0863999,17.0693373 69.3700927,16.7958984 C69.6537856,16.5224596 69.8759513,16.1430688 70.0365966,15.6577148 C70.197242,15.1723609 70.2946531,14.6989769 70.328833,14.2375488 C70.3630128,13.7761207 70.3835204,13.3095727 70.3903564,12.8378906 L70.4006103,11.7099609 C70.4006103,11.6621091 70.4057372,11.6313477 70.4159912,11.6176758 C70.4262451,11.6040038 70.4621334,11.6040038 70.5236572,11.6176758 L71.7643798,12.0073242 C71.8600834,12.0415041 71.9318601,12.0791014 71.9797119,12.1201172 C72.0275637,12.161133 72.0497803,12.2072751 72.0463623,12.2585449 C72.0429443,12.3098147 71.9968022,12.3833003 71.9079345,12.4790039 L71.641333,12.7558594 Z M71.6823486,15.9550781 C71.586645,15.9003904 71.5405029,15.8405765 71.5439209,15.7756348 C71.5473388,15.710693 71.6242424,15.6645509 71.7746338,15.637207 C71.8224856,15.6303711 71.8959711,15.6423338 71.9950927,15.6730957 C72.0942143,15.7038576 72.3676491,15.7397459 72.8154052,15.7807617 C73.2631614,15.8217775 73.8271206,15.9755846 74.5072998,16.2421875 C75.1874789,16.5087904 75.6232656,16.8078597 75.8146728,17.1394043 C76.00608,17.4709489 76.1017822,17.7700182 76.1017822,18.0366211 C76.1017822,18.303224 76.0539311,18.5390615 75.9582275,18.7441406 C75.8625239,18.9492198 75.7070079,19.0637206 75.4916748,19.0876465 C75.2763417,19.1115724 75.049049,18.9833998 74.80979,18.703125 C74.7619382,18.6552732 74.5363545,18.351077 74.1330322,17.7905273 C73.7297099,17.2299777 73.3400653,16.8369152 72.9640869,16.6113281 C72.5881084,16.3857411 72.3010019,16.2250981 72.1027588,16.1293945 L71.6823486,15.9550781 Z M82.3153564,3.51708984 C82.2264887,3.51025387 82.1666749,3.48974626 82.135913,3.45556641 C82.1051511,3.42138655 82.0812256,3.33081128 82.0641357,3.18383789 C82.0470457,3.0368645 82.1171134,2.96337891 82.2743407,2.96337891 L85.4633056,2.96337891 L85.4633056,1.74316406 L85.4325439,0.317871094 C85.4530518,0.270019292 85.4667235,0.240966848 85.4735595,0.230712891 C85.4803955,0.220458933 85.5521721,0.232421704 85.6888915,0.266601562 L86.8475829,0.584472656 C86.9364506,0.611816543 87.0099361,0.649413823 87.0680419,0.697265625 C87.1261477,0.745117427 87.158618,0.786132642 87.165454,0.8203125 L87.165454,0.840820312 C87.165454,0.868164199 87.163745,0.890380774 87.1603271,0.907470703 C87.1569091,0.924560632 87.1381104,0.950195142 87.1039306,0.984375 L86.6732665,1.46630859 L86.6322509,2.96337891 L88.7548095,2.96337891 L89.1752196,2.20458984 C89.2845952,1.99951069 89.3597897,1.87475608 89.4008056,1.83032227 C89.4418214,1.78588845 89.4913815,1.77905258 89.5494872,1.80981445 C89.607593,1.84057633 89.7152579,1.94482333 89.8724853,2.12255859 L90.6312743,3.00439453 C90.7611578,3.16845785 90.8260985,3.29492143 90.8260985,3.38378906 C90.8124266,3.47949267 90.7611576,3.52734375 90.67229,3.52734375 L86.6322509,3.52734375 L86.5604735,5.61914062 L88.7137939,5.61914062 L89.0009032,5.12695312 C89.0966068,4.95605383 89.1649655,4.87231444 89.2059814,4.87573242 C89.2469972,4.87915041 89.3563711,4.9628898 89.5341064,5.12695312 L90.0980712,5.67041016 C90.2416266,5.81396556 90.3219481,5.90112289 90.339038,5.93188477 C90.3561279,5.96264664 90.3629638,6.00024392 90.3595458,6.04467773 C90.3561278,6.08911155 90.3031498,6.17968682 90.2006103,6.31640625 L89.9340087,6.65478516 L89.9340087,8.16210938 L89.9647704,9.71044922 C89.8690668,9.91552837 89.7118418,10.0471189 89.4930907,10.1052246 C89.2743396,10.1633304 89.1205326,10.1889649 89.031665,10.1821289 C88.8812736,10.1752929 88.806079,10.1035163 88.806079,9.96679688 L88.806079,9.38232422 L83.8739501,9.38232422 L83.8739501,10.0693359 C83.8739501,10.1650395 83.8124273,10.2692865 83.6893798,10.3820801 C83.5663323,10.4948736 83.3339128,10.5478516 82.9921142,10.5410156 C82.9169185,10.5410156 82.8622315,10.5256349 82.8280517,10.494873 C82.7938718,10.4641112 82.7631104,10.4008794 82.7357665,10.3051758 L82.787036,8.64404297 L82.787036,6.69580078 L82.7357665,4.97314453 C82.7699464,4.91162079 82.7972899,4.87744144 82.8177978,4.87060547 C82.8383057,4.8637695 82.9066644,4.89794884 83.0228759,4.97314453 L83.9867431,5.61914062 L85.412036,5.61914062 L85.4633056,3.52734375 L82.356372,3.52734375 L82.3153564,3.51708984 Z M88.806079,6.20361328 L87.8114501,6.20361328 L87.6576415,6.3984375 L87.6576415,8.82861328 L88.806079,8.82861328 L88.806079,6.20361328 Z M86.7552978,6.20361328 L85.8427001,6.20361328 L85.750415,6.37792969 L85.750415,8.82861328 L86.7552978,8.82861328 L86.7552978,6.20361328 Z M84.8275634,6.20361328 L83.8739501,6.20361328 L83.8739501,8.82861328 L84.8275634,8.82861328 L84.8275634,6.20361328 Z M89.575122,11.1665039 L89.9647704,10.4692383 C90.0878179,10.2299793 90.1715573,10.1086426 90.2159911,10.1052246 C90.2604249,10.1018066 90.3817616,10.2094716 90.5800048,10.4282227 L91.2567626,11.2075195 C91.407154,11.3784188 91.4789306,11.5083003 91.4720946,11.597168 C91.4652587,11.6791996 91.4242435,11.7202148 91.3490478,11.7202148 L81.9462157,11.7202148 C81.8641841,11.7133789 81.8060792,11.6928713 81.7718993,11.6586914 C81.7377195,11.6245115 81.712085,11.5339363 81.694995,11.3869629 C81.6779051,11.2399895 81.7513907,11.1665039 81.915454,11.1665039 L89.575122,11.1665039 Z M80.931079,8.38769531 L81.1771728,8.60302734 C81.2933843,8.70556692 81.358325,8.76879871 81.371997,8.79272461 C81.3856689,8.81665051 81.3925048,8.83886708 81.3925048,8.859375 C81.3925048,8.87988292 81.3890869,8.90209949 81.3822509,8.92602539 C81.3754149,8.94995129 81.3412356,9.00292928 81.2797118,9.08496094 L81.0336181,9.38232422 L81.0336181,16.4370117 L81.0848876,18.2314453 C80.99602,18.6005878 80.8097425,18.7885742 80.5260497,18.7954102 C80.2423569,18.8022461 80.081714,18.7834475 80.0441161,18.7390137 C80.0065183,18.6945799 79.9774658,18.6313481 79.9569579,18.5493164 L80.0082275,16.4780273 L80.0082275,9.90527344 C79.8988519,10.0830087 79.6989027,10.382078 79.4083739,10.8024902 C79.1178451,11.2229025 78.9452394,11.4672848 78.8905517,11.5356445 L78.5931884,11.9047852 C78.3470934,12.2055679 78.1864505,12.3457032 78.1112548,12.3251953 C78.0770749,12.3251953 78.0565673,12.3149415 78.0497314,12.2944336 C78.0428954,12.2739257 78.0394775,12.2534181 78.0394775,12.2329102 L78.0394775,12.1611328 C78.0394775,12.1337889 78.0599851,12.0859378 78.1010009,12.0175781 L78.3265868,11.6689453 L78.7162353,10.8896484 C78.9486583,10.4179664 79.1349357,10.0061053 79.2750732,9.65405273 C79.4152106,9.30200019 79.6168687,8.77051137 79.8800536,8.05957031 C80.1432385,7.34862926 80.3158442,6.86499152 80.3978759,6.60864258 C80.4799076,6.35229364 80.561938,6.07373197 80.6439696,5.77294922 L80.8695556,4.93212891 C80.8763915,4.89794905 80.8866454,4.87573247 80.9003173,4.86547852 C80.9139892,4.85522456 80.97893,4.89111287 81.0951415,4.97314453 L82.1820556,5.77294922 C82.2504153,5.82763699 82.3051022,5.88061498 82.3461181,5.93188477 C82.3871339,5.98315455 82.4059325,6.03955047 82.4025146,6.10107422 C82.3990966,6.16259796 82.3358648,6.22753872 82.2128173,6.29589844 L81.9257079,6.47021484 L80.931079,8.38769531 Z M85.1249267,13.6787109 L85.1249267,16.7548828 C85.1249267,16.9941418 85.2018302,17.1376951 85.3556396,17.1855469 C85.5094489,17.2333987 85.7606671,17.2573242 86.1093017,17.2573242 C86.765555,17.2641602 87.2406479,17.2077643 87.5345946,17.0881348 C87.8285414,16.9685053 88.0336175,16.8129892 88.149829,16.621582 C88.2660405,16.4301748 88.3822503,16.1396504 88.4984618,15.75 L88.8470946,14.5400391 C88.8881105,14.3964837 88.9462154,14.328125 89.021411,14.3349609 C89.0555909,14.3417969 89.0778075,14.3674314 89.0880614,14.4118652 C89.0983154,14.4562991 89.1034423,14.4921874 89.1034423,14.5195312 L89.1034423,14.6220703 L88.9701415,15.75 C88.9633055,15.8320317 88.9581786,15.9123531 88.9547607,15.9909668 C88.9513427,16.0695805 88.9598875,16.1567378 88.9803954,16.2524414 C89.0077393,16.4506846 89.0658442,16.6420889 89.1547118,16.8266602 C89.2435795,17.0112314 89.2999754,17.135986 89.3239013,17.2009277 C89.3478272,17.2658695 89.35979,17.3530268 89.35979,17.4624023 C89.35979,17.8520527 89.1410421,18.1682117 88.70354,18.4108887 C88.2660378,18.6535657 87.5858688,18.7714844 86.6630126,18.7646484 C85.849532,18.7646484 85.2531024,18.7185063 84.873706,18.6262207 C84.4943095,18.5339351 84.2670169,18.3510756 84.1918212,18.0776367 C84.1166255,17.8041979 84.0790282,17.5922859 84.0790282,17.4418945 L84.0790282,14.2426758 L84.0277587,12.5200195 C84.0482666,12.4926756 84.0721922,12.472168 84.099536,12.4584961 L84.325122,12.5405273 L85.42229,12.9301758 C85.4974856,12.9575197 85.533374,13.0139156 85.529956,13.0993652 C85.526538,13.1848149 85.4701421,13.2890619 85.3607665,13.4121094 L85.1249267,13.6787109 Z M81.9974853,1.90722656 C81.4506075,2.77539497 80.9652608,3.505124 80.5414306,4.09643555 C80.1176003,4.6877471 79.6049101,5.33202776 79.0033446,6.02929688 L78.6649657,6.41894531 C78.5077384,6.60351655 78.3881107,6.69238285 78.306079,6.68554688 C78.2855711,6.68554688 78.2684814,6.67871101 78.2548095,6.66503906 C78.2411375,6.65136712 78.2343017,6.62402364 78.2343017,6.58300781 C78.2343017,6.54199198 78.2479734,6.48730503 78.2753173,6.41894531 L78.5009032,6.02929688 L78.849536,5.39355469 C79.1366469,4.87402084 79.4733134,4.15796355 79.8595458,3.24536133 C80.2457782,2.33275911 80.5311757,1.57226867 80.715747,0.963867188 L80.8900634,0.369140625 C80.9105713,0.30761688 80.9327879,0.280273403 80.9567138,0.287109375 C80.9806397,0.293945347 81.0267818,0.321288823 81.0951415,0.369140625 L82.2025634,1.24072266 C82.3324469,1.3500982 82.4093504,1.42187483 82.4332763,1.45605469 C82.4572022,1.49023455 82.467456,1.53124976 82.464038,1.57910156 C82.46062,1.62695336 82.407642,1.67822238 82.3051025,1.73291016 L81.9974853,1.90722656 Z M82.6537353,13.5556641 C82.7015871,13.2890612 82.756274,13.2207025 82.8177978,13.3505859 C82.8793215,13.4804694 82.9459712,13.7060531 83.0177489,14.0273437 C83.0895266,14.3486344 83.1390867,14.6169423 83.1664306,14.8322754 C83.1937745,15.0476085 83.2074462,15.2680653 83.2074462,15.4936523 C83.2006102,16.054202 83.1049081,16.5498025 82.9203368,16.9804688 C82.7357656,17.411135 82.4760026,17.6230469 82.14104,17.6162109 C81.9017809,17.6162109 81.7291752,17.5187998 81.6232177,17.3239746 C81.5172601,17.1291494 81.4625732,16.9052747 81.4591552,16.6523438 C81.4557372,16.3994128 81.5565663,16.1123063 81.7616454,15.7910156 L82.0795165,15.3706055 C82.2094,15.1860342 82.3153559,14.991212 82.3973876,14.7861328 C82.4794193,14.5810537 82.54436,14.3178727 82.5922118,13.996582 L82.6537353,13.5556641 Z M85.8221923,12.4379883 C85.8016844,12.3969725 85.7931395,12.3525393 85.7965575,12.3046875 C85.7999755,12.2568357 85.8307369,12.2226564 85.8888427,12.2021484 C85.9469484,12.1816405 86.0272699,12.2124019 86.1298095,12.2944336 C86.1366455,12.3012696 86.266527,12.3867179 86.5194579,12.5507812 C86.7723889,12.7148446 87.0184802,12.9746076 87.2577392,13.3300781 C87.4969982,13.6855487 87.6166259,14.0170883 87.6166259,14.324707 C87.6166259,14.6323258 87.5756107,14.878417 87.493579,15.0629883 C87.3568596,15.377443 87.1654552,15.53125 86.9193603,15.5244141 C86.7758049,15.5244141 86.6493413,15.473145 86.5399657,15.3706055 C86.4305902,15.2680659 86.3553956,15.1484382 86.3143798,15.0117188 C86.273364,14.8749993 86.2511474,14.6135273 86.2477294,14.2272949 C86.2443114,13.8410625 86.2203859,13.5505381 86.1759521,13.3557129 C86.1315182,13.1608877 86.0751223,12.9780282 86.0067626,12.8071289 L85.8221923,12.4379883 Z M89.0419189,13.2583008 C89.014575,13.217285 88.9991943,13.1728518 88.9957763,13.125 C88.9923583,13.0771482 89.0385004,13.0429689 89.134204,13.0224609 C89.1547119,13.0224609 89.3238997,13.1147452 89.6417724,13.2993164 C89.9596451,13.4838876 90.3321999,13.8017556 90.7594482,14.2529297 C91.1866964,14.7041038 91.4003173,15.2373016 91.4003173,15.8525391 C91.4003173,16.0234384 91.3678469,16.2250965 91.3029052,16.4575195 C91.2379635,16.6899426 91.0978281,16.8728021 90.882495,17.0061035 C90.6671619,17.139405 90.4569589,17.0761732 90.2518798,16.8164062 C90.1356683,16.6865228 90.0587648,16.5327157 90.0211669,16.3549805 C89.9835691,16.1772452 89.9374269,15.874758 89.8827392,15.4475098 C89.8280514,15.0202615 89.7511479,14.6682143 89.6520263,14.3913574 C89.5529047,14.1145006 89.4247321,13.8496106 89.2675048,13.5966797 L89.0419189,13.2583008 Z M93.184204,12.4174805 L93.184204,4.46044922 L91.7281493,4.46044922 C91.6119378,4.46044922 91.5435791,4.36645602 91.5230712,4.1784668 C91.5025632,3.99047758 91.5709219,3.89648438 91.7281493,3.89648438 L93.184204,3.89648438 L93.184204,1.86621094 L93.1329344,0.143554687 C93.1534424,0.0957028857 93.170532,0.0683594092 93.184204,0.0615234375 C93.1978759,0.0546874658 93.2867422,0.0820309424 93.4508055,0.143554687 L94.4454344,0.522949219 C94.5753179,0.577636992 94.6505125,0.620361174 94.6710204,0.651123047 C94.6915283,0.681884919 94.7034911,0.717773232 94.706909,0.758789062 C94.710327,0.799804893 94.657349,0.871581519 94.5479735,0.974121094 L94.3018797,1.22021484 L94.3018797,3.89648438 L96.2193602,3.89648438 L96.2193602,1.66113281 L96.1885985,0.235839844 C96.2091064,0.201659985 96.2261961,0.177734443 96.239868,0.1640625 L96.5269774,0.276855469 L97.5113524,0.635742187 C97.620728,0.676758018 97.6839597,0.710937363 97.7010497,0.73828125 C97.7181396,0.765625137 97.7283934,0.794677581 97.7318114,0.825439453 C97.7352294,0.856201326 97.702759,0.905761377 97.6343993,0.974121094 L97.337036,1.30224609 L97.337036,3.89648438 L97.4190672,3.89648438 L97.8907469,3.06591797 C97.9727786,2.92236256 98.0360104,2.84887697 98.0804442,2.84545898 C98.124878,2.842041 98.2120353,2.94287007 98.3419188,3.14794922 L98.9366454,4.13232422 C98.9708252,4.20068394 98.9930418,4.25195295 99.0032958,4.28613281 C99.0135497,4.32031267 99.0186766,4.34252925 99.0186766,4.3527832 L99.0186766,4.38867188 C98.9981687,4.42968771 98.9708252,4.45019531 98.9366454,4.45019531 L97.8907469,4.45019531 L97.8907469,4.46044922 L97.337036,4.46044922 L97.337036,12.3046875 L97.7471922,11.6176758 C97.8428959,11.4604484 97.9078366,11.380127 97.9420165,11.376709 C97.9761963,11.373291 98.0343012,11.4331049 98.1163329,11.5561523 L98.7930907,12.6430664 C98.8614504,12.7661139 98.8956297,12.8532712 98.8956297,12.904541 C98.8956297,12.9558108 98.8375249,12.9814453 98.7213133,12.9814453 L91.7178954,12.9814453 L91.6563719,12.9711914 C91.5811762,12.9643554 91.5264893,12.9438478 91.4923094,12.909668 C91.4581296,12.8754881 91.4393309,12.7849128 91.435913,12.6379395 C91.432495,12.4909661 91.4991447,12.4174805 91.6358641,12.4174805 L93.184204,12.4174805 Z M96.2193602,6.51123047 L96.2193602,4.46044922 L94.3018797,4.46044922 L94.3018797,6.51123047 L96.2193602,6.51123047 Z M96.2193602,9.45410156 L96.2193602,7.07519531 L94.3018797,7.07519531 L94.3018797,9.45410156 L96.2193602,9.45410156 Z M96.2193602,12.4174805 L96.2193602,10.0078125 L94.3018797,10.0078125 L94.3018797,12.4174805 L96.2193602,12.4174805 Z M100.290161,7.20849609 L103.048462,7.20849609 L103.581665,6.26513672 C103.670533,6.10790937 103.737182,6.02758791 103.781616,6.02416992 C103.82605,6.02075194 103.902953,6.1010734 104.012329,6.26513672 L104.80188,7.47509766 C104.856568,7.56396529 104.880493,7.62548811 104.873657,7.65966797 C104.859985,7.72802769 104.812134,7.76220703 104.730102,7.76220703 L103.345825,7.76220703 C103.311645,7.8168948 103.280884,7.88183556 103.25354,7.95703125 L103.192016,8.02880859 L103.099731,8.14160156 L103.099731,16.7958984 L103.140747,18.2416992 C103.086059,18.542482 102.963014,18.7407222 102.771606,18.8364258 C102.580199,18.9321294 102.41272,18.9765625 102.269165,18.9697266 C102.111938,18.9697266 102.004273,18.9355472 101.946167,18.8671875 C101.888061,18.7988278 101.848755,18.6928718 101.828247,18.5493164 L101.88977,16.4780273 L101.88977,7.76220703 L100.290161,7.76220703 C100.269653,8.89697833 100.247437,9.85400001 100.223511,10.6333008 C100.199585,11.4126016 100.143189,12.1166961 100.054321,12.7456055 C99.9654535,13.3745149 99.8304451,13.9692355 99.6492919,14.5297852 C99.4681386,15.0903348 99.2750253,15.5773905 99.0699462,15.9909668 C98.864867,16.4045431 98.6324475,16.7890607 98.3726805,17.1445312 L97.6959227,17.9853516 C97.5386954,18.1767588 97.4293215,18.3032223 97.3677977,18.3647461 L97.008911,18.7236328 C96.9542232,18.7783206 96.9080811,18.8039551 96.8704833,18.8005371 C96.8328854,18.7971191 96.8072509,18.7868653 96.793579,18.7697754 C96.779907,18.7526855 96.7764891,18.7185061 96.7833251,18.6672363 C96.790161,18.6159665 96.8243404,18.5493168 96.8858641,18.4672852 L97.1729735,18.0673828 C97.5216081,17.6025367 97.8292222,17.0915555 98.0958251,16.5344238 C98.362428,15.9772921 98.5623771,15.3449742 98.6956786,14.6374512 C98.82898,13.9299281 98.9281001,13.3164088 98.9930419,12.796875 C99.0579836,12.2773412 99.0989988,11.5937542 99.1160887,10.7460938 C99.1331787,9.89843326 99.1451414,9.13110695 99.1519774,8.4440918 C99.1588134,7.75707664 99.1622313,7.27685684 99.1622313,7.00341797 L99.1622313,5.99853516 L99.1109618,3.82470703 L99.1109618,3.38378906 L99.0186766,1.81494141 C99.0323486,1.78759752 99.0460203,1.76708991 99.0596922,1.75341797 L99.3262938,1.93798828 L100.546509,2.76855469 C101.134402,2.40624819 101.621458,2.06787267 102.00769,1.75341797 C102.393923,1.43896327 102.648559,1.20996166 102.771606,1.06640625 L103.099731,0.687011719 C103.202271,0.563964229 103.268921,0.504150374 103.299682,0.507568359 C103.330444,0.510986345 103.414184,0.60839748 103.550903,0.799804687 L104.309692,1.93798828 C104.39856,2.07470771 104.444702,2.17553678 104.44812,2.24047852 C104.451538,2.30542025 104.391724,2.34130856 104.268677,2.34814453 L103.889282,2.38916016 C103.773071,2.4028321 103.503054,2.46093699 103.079223,2.56347656 L101.838501,2.80957031 L100.290161,3.12744141 L100.290161,7.20849609 Z M94.712036,14.7451172 C94.1241424,15.5312539 93.573855,16.2028781 93.0611571,16.7600098 C92.5484592,17.3171415 92.2203375,17.6572259 92.0767821,17.7802734 L91.7384032,18.0673828 C91.6700435,18.1289066 91.6221924,18.15625 91.5948485,18.1494141 C91.5811766,18.1494141 91.5692138,18.1459961 91.5589598,18.1391602 C91.5487059,18.1323242 91.54187,18.1015628 91.538452,18.046875 C91.535034,17.9921872 91.5606685,17.9238285 91.6153563,17.8417969 L91.9127196,17.4008789 C92.1588146,17.0249005 92.4459211,16.5139192 92.7740477,15.8679199 C93.1021744,15.2219206 93.3414298,14.6938497 93.4918212,14.2836914 L93.7071532,13.7197266 L93.8199462,13.340332 C93.8404541,13.3129881 93.8643796,13.3061523 93.8917235,13.3198242 L94.0865477,13.4941406 L94.9991454,14.2426758 C95.0743411,14.3110355 95.1204832,14.3605955 95.1375731,14.3913574 C95.154663,14.4221193 95.1632079,14.4597166 95.1632079,14.5041504 C95.1632079,14.5485842 95.1153568,14.5878905 95.0196532,14.6220703 L94.712036,14.7451172 Z M95.9322508,14.2631836 L95.7271727,13.9658203 L95.6246337,13.8325195 C95.6177977,13.8120116 95.6143797,13.7880861 95.6143797,13.7607422 C95.6212157,13.6855465 95.6553951,13.6445313 95.7169188,13.6376953 C95.8126224,13.6376953 96.0997289,13.8137189 96.5782469,14.1657715 C97.056765,14.517824 97.3831777,14.8613265 97.557495,15.1962891 C97.7318123,15.5312517 97.8189696,15.8593734 97.8189696,16.1806641 C97.8189696,16.3447274 97.798462,16.4968255 97.7574462,16.6369629 C97.7164303,16.7771003 97.6463627,16.9189446 97.5472411,17.0625 C97.4481195,17.2060554 97.3233649,17.277832 97.1729735,17.277832 C96.9952382,17.284668 96.8585209,17.1872569 96.7628172,16.9855957 C96.6671136,16.7839345 96.598755,16.5600598 96.5577391,16.3139648 L96.4552001,15.6474609 C96.4073483,15.3603501 96.3441165,15.1125499 96.2655028,14.9040527 C96.1868891,14.6955556 96.0758062,14.4819347 95.9322508,14.2631836 Z M113.86604,8.54150391 L113.86604,10.3051758 L105.027173,10.3051758 L105.027173,8.54150391 L113.86604,8.54150391 Z M120.284692,10.7255859 L116.675317,10.7255859 L115.731958,14.6938477 C115.690942,14.851075 115.673852,15.0048821 115.680688,15.1552734 C115.687524,15.3056648 115.747338,15.4355463 115.860132,15.5449219 C115.972925,15.6542974 116.17971,15.7089844 116.480493,15.7089844 L116.952173,15.7089844 C117.116236,15.7089844 117.198266,15.8132314 117.198266,16.0217285 C117.198266,16.2302257 117.116236,16.3344727 116.952173,16.3344727 L113.865747,16.3344727 C113.735863,16.3344727 113.662378,16.2302257 113.645288,16.0217285 C113.628198,15.8132314 113.701684,15.7089844 113.865747,15.7089844 L114.275903,15.7089844 C114.419458,15.7089844 114.545922,15.6679692 114.655298,15.5859375 C114.764673,15.5039058 114.862084,15.3876961 114.947534,15.2373047 C115.032984,15.0869133 115.106469,14.8852552 115.167993,14.6323242 L118.367212,1.53808594 C118.442407,1.24413916 118.560326,1.09375003 118.720971,1.08691406 C118.881617,1.08007809 119.002953,1.21337754 119.084985,1.48681641 L122.571313,14.6015625 C122.667017,14.970705 122.795189,15.2475577 122.955835,15.4321289 C123.11648,15.6167001 123.285668,15.7089844 123.463403,15.7089844 L123.699243,15.7089844 C123.842798,15.7089844 123.914575,15.8132314 123.914575,16.0217285 C123.914575,16.2302257 123.842798,16.3344727 123.699243,16.3344727 L120.356469,16.3344727 C120.21975,16.3344727 120.151391,16.2302257 120.151391,16.0217285 C120.151391,15.8132314 120.21975,15.7089844 120.356469,15.7089844 L120.612817,15.7089844 C120.934108,15.7089844 121.135766,15.6645512 121.217798,15.5756836 C121.299829,15.486816 121.351098,15.382569 121.371606,15.2629395 C121.392114,15.1433099 121.357935,14.8989276 121.269067,14.5297852 L120.284692,10.7255859 Z M116.829126,10.1616211 L120.12063,10.1616211 L118.387719,3.58886719 L116.829126,10.1616211 Z M126.580298,1.34326172 L130.066626,13.5864258 L133.327368,1.34326172 L135.921606,1.34326172 C136.078834,1.34326172 136.164282,1.46288943 136.177954,1.70214844 C136.191626,1.94140745 136.106177,2.06103516 135.921606,2.06103516 L135.408911,2.06103516 C135.217504,2.06103516 135.080786,2.1003414 134.998755,2.17895508 C134.916723,2.25756875 134.870581,2.32934538 134.860327,2.39428711 C134.850073,2.45922884 134.844946,2.63867041 134.844946,2.93261719 L134.844946,14.4272461 C134.844946,14.8100605 134.872289,15.0834953 134.926977,15.2475586 C134.981665,15.4116219 135.068822,15.5380855 135.188452,15.6269531 C135.308081,15.7158208 135.480687,15.7602539 135.706274,15.7602539 L136.177954,15.7602539 C136.328345,15.7602539 136.40354,15.8559561 136.40354,16.0473633 C136.40354,16.2387705 136.328345,16.3344727 136.177954,16.3344727 L132.537817,16.3344727 C132.401098,16.3344727 132.332739,16.2387705 132.332739,16.0473633 C132.332739,15.8559561 132.401098,15.7602539 132.537817,15.7602539 L132.865942,15.7602539 C133.050513,15.7602539 133.197485,15.7124028 133.30686,15.6166992 C133.416236,15.5209956 133.489721,15.4064948 133.527319,15.2731934 C133.564917,15.1398919 133.583716,14.8818379 133.583716,14.4990234 L133.583716,2.59423828 L130.02561,15.9755859 C129.95725,16.201173 129.85813,16.3225097 129.728247,16.3395996 C129.598363,16.3566895 129.495825,16.2250991 129.42063,15.9448242 L125.831762,3.32226562 L125.842016,14.8066406 C125.842016,15.0732435 125.879614,15.2629389 125.954809,15.3757324 C126.030005,15.488526 126.149633,15.5808102 126.313696,15.6525879 C126.477759,15.7243656 126.679417,15.7602539 126.918676,15.7602539 L127.267309,15.7602539 C127.445045,15.7602539 127.527075,15.8559561 127.513403,16.0473633 C127.499731,16.2387705 127.417701,16.3344727 127.267309,16.3344727 L124.11936,16.3344727 C123.989477,16.3344727 123.914282,16.2387705 123.893774,16.0473633 C123.873266,15.8559561 123.948461,15.7602539 124.11936,15.7602539 L124.560278,15.7602539 C124.717505,15.7602539 124.866186,15.7260746 125.006323,15.6577148 C125.14646,15.5893551 125.242163,15.4987799 125.293432,15.3859863 C125.344702,15.2731928 125.370337,15.0937512 125.370337,14.8476562 L125.370337,3.48632812 C125.370337,3.04882594 125.346411,2.74975666 125.298559,2.58911133 C125.250707,2.42846599 125.170386,2.30029345 125.057592,2.20458984 C124.944799,2.10888624 124.758522,2.06103516 124.498755,2.06103516 L123.986059,2.06103516 C123.81516,2.06103516 123.729712,1.94140745 123.729712,1.70214844 C123.729712,1.46288943 123.81516,1.34326172 123.986059,1.34326172 L126.580298,1.34326172 Z M142.288989,10.171875 L141.673755,10.171875 C141.516527,10.171875 141.434497,10.0625011 141.427661,9.84375 C141.420825,9.62499891 141.502855,9.515625 141.673755,9.515625 L145.518969,9.515625 C145.683033,9.515625 145.761645,9.62499891 145.754809,9.84375 C145.747973,10.0625011 145.669361,10.171875 145.518969,10.171875 L145.139575,10.171875 C144.96184,10.171875 144.826831,10.2163081 144.734546,10.3051758 C144.64226,10.3940434 144.573901,10.5034173 144.529467,10.6333008 C144.485034,10.7631842 144.462817,10.9067375 144.462817,11.0639648 L144.462817,15.7192383 C144.462817,15.8696297 144.430347,15.9636229 144.365405,16.0012207 C144.300463,16.0388185 144.230396,16.0200199 144.1552,15.9448242 L143.991137,15.75 C143.874926,15.6269525 143.721119,15.5620118 143.529712,15.5551758 C143.365648,15.5551758 143.141774,15.6337883 142.858081,15.7910156 C142.574388,15.948243 142.292408,16.0866693 142.012133,16.2062988 C141.731859,16.3259283 141.400319,16.3891601 141.017505,16.3959961 C140.56633,16.409668 140.082693,16.2985852 139.566577,16.0627441 C139.050461,15.8269031 138.544607,15.4184599 138.048999,14.8374023 C137.553391,14.2563448 137.174,13.5710489 136.910815,12.7814941 C136.64763,11.9919394 136.478442,11.1545454 136.403247,10.2692871 C136.328051,9.38402878 136.334887,8.44922367 136.423755,7.46484375 C136.519458,6.41210411 136.700609,5.46875417 136.967212,4.63476562 C137.233814,3.80077708 137.579026,3.12231707 138.002856,2.59936523 C138.426686,2.0764134 138.903488,1.70214957 139.433276,1.4765625 C139.963064,1.25097543 140.497971,1.14501946 141.038012,1.15869141 C141.311451,1.17236335 141.555834,1.20825166 141.771167,1.26635742 C141.9865,1.32446318 142.206957,1.40820258 142.432544,1.51757812 C142.658131,1.62695367 142.815356,1.68847649 142.904223,1.70214844 C143.081959,1.75000024 143.216967,1.73803747 143.309253,1.66625977 C143.401538,1.59448206 143.475024,1.50048886 143.529712,1.38427734 L143.632251,1.15869141 C143.673266,1.07665975 143.738207,1.02709969 143.827075,1.01000977 C143.915943,0.992919836 143.991137,1.10058478 144.052661,1.33300781 L144.821704,4.59375 C144.890063,4.89453275 144.855884,5.09106399 144.719165,5.18334961 C144.582445,5.27563523 144.473071,5.21923931 144.39104,5.01416016 L144.206469,4.61425781 C144.076586,4.327147 143.914234,4.02295083 143.719409,3.70166016 C143.524584,3.38036949 143.276783,3.07275538 142.976001,2.77880859 C142.675218,2.48486181 142.314626,2.24560639 141.894214,2.06103516 C141.473801,1.87646392 141.003835,1.85937425 140.484301,2.00976562 C140.135667,2.1123052 139.787038,2.31567231 139.438403,2.61987305 C139.089768,2.92407379 138.763356,3.38720392 138.459155,4.00927734 C138.154954,4.63135077 137.94646,5.31493768 137.833667,6.06005859 C137.720873,6.80517951 137.655932,7.55199821 137.638842,8.30053711 C137.621753,9.04907601 137.633715,9.68993874 137.674731,10.2231445 C137.749927,11.2895561 137.949876,12.2653764 138.274585,13.1506348 C138.599293,14.0358931 139.007736,14.66992 139.499926,15.0527344 C139.992116,15.4355488 140.518478,15.6406249 141.079028,15.6679688 C141.61907,15.7021486 142.077073,15.5671402 142.453051,15.2629395 C142.82903,14.9587387 143.069994,14.5981466 143.175952,14.1811523 C143.281909,13.7641581 143.334887,13.3881853 143.334887,13.0532227 L143.334887,11.3408203 C143.334887,11.0742174 143.304126,10.8554696 143.242602,10.6845703 C143.181078,10.513671 143.081958,10.3854985 142.945239,10.3000488 C142.808519,10.2145992 142.589772,10.171875 142.288989,10.171875 Z M157.915356,1.62011719 L158.745922,5.19873047 C158.793774,5.40380962 158.761304,5.55078081 158.64851,5.63964844 C158.535717,5.72851607 158.438306,5.65673944 158.356274,5.42431641 L158.171704,4.94238281 C158.062328,4.64843603 157.872633,4.24170182 157.602612,3.72216797 C157.332591,3.20263412 156.990798,2.73437708 156.577221,2.31738281 C156.163645,1.90038854 155.700515,1.69189453 155.187817,1.69189453 C154.675119,1.6987305 154.251295,1.91747832 153.916333,2.34814453 C153.58137,2.77881075 153.378003,3.36327756 153.306225,4.1015625 C153.234447,4.83984744 153.331859,5.47216534 153.598461,5.99853516 C153.776197,6.3745136 154.053049,6.69409048 154.429028,6.95727539 C154.805006,7.2204603 155.315988,7.497313 155.961987,7.7878418 C156.607986,8.07837059 157.154856,8.38427574 157.602612,8.70556641 C158.050368,9.02685708 158.41096,9.48656927 158.684399,10.0847168 C158.957838,10.6828643 159.099682,11.3647423 159.109936,12.1303711 C159.12019,12.8959999 158.9886,13.6035124 158.715161,14.2529297 C158.469066,14.8476592 158.122145,15.3364239 157.674389,15.7192383 C157.226633,16.1020527 156.725906,16.3242184 156.172192,16.3857422 C155.809885,16.433594 155.47151,16.4165043 155.157055,16.3344727 C154.842601,16.252441 154.586255,16.1635747 154.388012,16.0678711 L153.608715,15.7089844 C153.444652,15.6542966 153.328442,15.6542966 153.260083,15.7089844 C153.191723,15.7500002 153.143872,15.8217768 153.116528,15.9243164 L153.055004,16.1499023 C153.007153,16.2934577 152.935376,16.3720702 152.839672,16.3857422 C152.743969,16.3994141 152.672192,16.2934582 152.62434,16.0678711 L151.568188,11.9663086 C151.5135,11.7270496 151.542553,11.5681156 151.655346,11.489502 C151.76814,11.4108883 151.858715,11.4604483 151.927075,11.6381836 L152.183422,12.2841797 C152.285962,12.5644545 152.496165,13.0070771 152.814038,13.6120605 C153.13191,14.217044 153.5301,14.7143535 154.008618,15.1040039 C154.487136,15.4936543 155.023751,15.6918945 155.618481,15.6987305 C155.987623,15.7055664 156.343089,15.6098643 156.684887,15.4116211 C157.026686,15.2133779 157.320628,14.8732934 157.566723,14.3913574 C157.812818,13.9094214 157.935864,13.3300815 157.935864,12.6533203 C157.929028,12.0654267 157.831617,11.583498 157.643628,11.2075195 C157.455638,10.8315411 157.170241,10.5085463 156.787426,10.2385254 C156.404612,9.96850451 155.890213,9.67968904 155.244213,9.37207031 C154.598214,9.06445159 154.051345,8.75341954 153.603588,8.43896484 C153.155832,8.12451015 152.79524,7.68017865 152.521801,7.10595703 C152.248362,6.53173541 152.1031,5.8635292 152.08601,5.10131836 C152.06892,4.33910752 152.207347,3.61963229 152.501294,2.94287109 C152.774732,2.32079767 153.140451,1.84057786 153.598461,1.50219727 C154.056472,1.16381667 154.589669,1.00488271 155.198071,1.02539063 C155.519362,1.03906257 155.792796,1.09716746 156.018383,1.19970703 C156.24397,1.30224661 156.47639,1.44579986 156.715649,1.63037109 C156.954908,1.81494233 157.122387,1.88671896 157.21809,1.84570313 C157.279614,1.82519521 157.334301,1.78076206 157.382153,1.71240234 L157.525708,1.45605469 C157.566723,1.39453094 157.629955,1.35522469 157.715405,1.33813477 C157.800854,1.32104484 157.867504,1.41503804 157.915356,1.62011719 Z M170.9885,1.75341797 L170.9885,2.05078125 C170.557834,2.11914097 170.209205,2.20288036 169.942602,2.30200195 C169.675999,2.40112354 169.382057,2.58227407 169.060766,2.84545898 C168.739475,3.10864389 168.472877,3.36328002 168.260961,3.609375 C168.049046,3.85546998 167.840552,4.13744958 167.635473,4.45532227 C167.430394,4.77319495 167.249243,5.11669737 167.092016,5.48583984 C166.934789,5.85498231 166.828833,6.15234262 166.774145,6.37792969 L166.374243,7.89550781 C166.729713,7.62890492 167.011693,7.43579161 167.22019,7.31616211 C167.428687,7.1965326 167.673069,7.09399457 167.953344,7.00854492 C168.233619,6.92309528 168.517308,6.89404283 168.804418,6.92138672 C169.050513,6.94873061 169.291478,7.02563413 169.527319,7.15209961 C169.76316,7.27856509 169.985326,7.45629768 170.193823,7.68530273 C170.40232,7.91430779 170.56809,8.15869011 170.691137,8.41845703 C170.814185,8.67822396 170.920141,8.99267394 171.009008,9.36181641 C171.097876,9.73095888 171.154272,10.1052227 171.178198,10.4846191 C171.202124,10.8640156 171.203833,11.2622049 171.183325,11.6791992 C171.162817,12.1645532 171.113257,12.6328102 171.034643,13.0839844 C170.956029,13.5351585 170.83982,13.9760721 170.68601,14.4067383 C170.532201,14.8374045 170.337379,15.2048325 170.101538,15.5090332 C169.865697,15.8132339 169.583717,16.0593252 169.25559,16.2473145 C168.927464,16.4353037 168.517312,16.5190431 168.025122,16.4985352 C167.642307,16.4848632 167.315894,16.4096687 167.045874,16.2729492 C166.775853,16.1362298 166.526343,15.9516613 166.297338,15.7192383 C166.068333,15.4868152 165.868384,15.2338881 165.697485,14.9604492 C165.526586,14.6870104 165.367652,14.3076196 165.220678,13.8222656 C165.073705,13.3369116 164.96604,12.8515649 164.89768,12.3662109 C164.82932,11.8808569 164.790014,11.2861363 164.77976,10.5820312 C164.769506,9.87792617 164.791723,9.28662349 164.846411,8.80810547 C164.887426,8.41161911 164.962621,7.98779522 165.071997,7.53662109 C165.181372,7.08544696 165.295873,6.68896655 165.415502,6.34716797 C165.535132,6.00536938 165.683812,5.65332212 165.861547,5.29101562 C166.039283,4.92870913 166.271702,4.55786323 166.558813,4.1784668 C166.845924,3.79907037 167.155247,3.44873208 167.486791,3.12744141 C167.818336,2.80615074 168.168674,2.54126081 168.537817,2.33276367 C168.906959,2.12426654 169.272678,1.97216845 169.634985,1.87646484 C169.997291,1.78076124 170.243383,1.73632809 170.373266,1.74316406 L170.9885,1.75341797 Z M168.240454,15.9858398 C168.554908,15.9243161 168.802709,15.8439946 168.983862,15.744873 C169.165015,15.6457515 169.313695,15.4970713 169.429907,15.2988281 C169.546118,15.1005849 169.633276,14.8647475 169.691381,14.5913086 C169.749487,14.3178697 169.792211,14.0222184 169.819555,13.7043457 C169.846899,13.386473 169.86228,12.9917016 169.865698,12.5200195 C169.869116,12.0483375 169.853735,11.5595728 169.819555,11.0537109 C169.785375,10.5683569 169.72727,10.1394062 169.645239,9.7668457 C169.563207,9.39428525 169.446997,9.07470836 169.296606,8.80810547 C169.146215,8.54150257 168.956519,8.3261727 168.727514,8.16210938 C168.498509,7.99804605 168.230201,7.91259769 167.922582,7.90576172 C167.491916,7.90576172 167.153541,8.01171769 166.907446,8.22363281 L166.21018,8.75683594 C166.189672,9.16699424 166.172583,9.53613117 166.158911,9.86425781 C166.145239,10.1923845 166.141821,10.5341779 166.148657,10.8896484 C166.148657,11.2792988 166.165746,11.6997048 166.199926,12.1508789 C166.234106,12.602053 166.29392,13.0361307 166.37937,13.453125 C166.464819,13.8701193 166.567357,14.2426741 166.686987,14.5708008 C166.806616,14.8989274 166.938207,15.1603994 167.081762,15.3552246 C167.225318,15.5500498 167.377416,15.6901851 167.538061,15.7756348 C167.698706,15.8610844 167.932835,15.9311521 168.240454,15.9858398 Z M173.367114,1.8046875 L176.935473,1.79443359 L176.392016,3.34277344 L173.449145,3.34277344 L172.762133,5.45507812 C173.172292,5.57812562 173.50554,5.68920849 173.761889,5.78833008 C174.018238,5.88745167 174.260911,6.01391525 174.489916,6.16772461 C174.718921,6.32153397 174.959886,6.52490108 175.212817,6.77783203 C175.465748,7.03076298 175.686205,7.31445155 175.874194,7.62890625 C176.062183,7.94336095 176.224535,8.30395304 176.361254,8.71069336 C176.497974,9.11743367 176.595385,9.50536925 176.653491,9.87451172 C176.711596,10.2436542 176.730395,10.7016574 176.709887,11.2485352 C176.689379,11.6792014 176.643237,12.0876446 176.571459,12.473877 C176.499682,12.8601094 176.400562,13.2258284 176.274096,13.5710449 C176.147631,13.9162615 175.990406,14.2495101 175.802416,14.5708008 C175.614427,14.8920915 175.375172,15.1860338 175.084643,15.4526367 C174.794114,15.7192396 174.495045,15.9260247 174.187426,16.072998 C173.879807,16.2199714 173.548268,16.3071288 173.192797,16.3344727 C172.864671,16.3618165 172.586109,16.3430179 172.357104,16.2780762 C172.128099,16.2131344 171.924732,16.129395 171.746997,16.0268555 C171.569261,15.9243159 171.437671,15.7927254 171.352221,15.6320801 C171.266771,15.4714347 171.224047,15.2783214 171.224047,15.0527344 C171.224047,14.9775387 171.237719,14.8937993 171.265063,14.8015137 C171.292407,14.7092281 171.352221,14.6254887 171.444506,14.550293 C171.536792,14.4750973 171.630785,14.4375 171.726489,14.4375 C171.822192,14.444336 171.907641,14.4733884 171.982836,14.5246582 C172.058032,14.575928 172.196458,14.6835929 172.39812,14.8476562 C172.599781,15.0117196 172.801439,15.1416011 173.0031,15.2373047 C173.204761,15.3330083 173.4218,15.3808594 173.654223,15.3808594 C173.852466,15.3876953 174.037035,15.3569339 174.207934,15.2885742 C174.378833,15.2202145 174.583909,15.0852061 174.823168,14.8835449 C175.062427,14.6818838 175.270921,14.3708517 175.448657,13.9504395 C175.626392,13.5300272 175.737475,13.1096212 175.781909,12.689209 C175.826342,12.2687967 175.831469,11.8261742 175.797289,11.3613281 C175.742602,10.8417943 175.648609,10.383791 175.515307,9.98730469 C175.382006,9.59081833 175.212818,9.2319352 175.007739,8.91064453 C174.80266,8.58935386 174.583912,8.31421013 174.351489,8.08520508 C174.119066,7.85620003 173.871265,7.67675846 173.60808,7.546875 C173.344896,7.41699154 173.100513,7.32641627 172.874926,7.27514648 C172.649339,7.2238767 172.401539,7.17944355 172.131518,7.1418457 C171.861497,7.10424786 171.714526,7.05468781 171.6906,6.99316406 C171.666674,6.93164032 171.664965,6.83935608 171.685473,6.71630859 L171.921313,6.08056641 L173.367114,1.8046875 Z M191.044262,16.3549805 L183.384594,16.3549805 C183.261547,16.3549805 183.201733,16.2524424 183.205151,16.0473633 C183.208569,15.8422841 183.285472,15.7397461 183.435864,15.7397461 L183.743481,15.7397461 C183.941724,15.7397461 184.095531,15.6970219 184.204907,15.6115723 C184.314282,15.5261226 184.394604,15.4099128 184.445873,15.2629395 C184.497143,15.1159661 184.522778,14.8613299 184.522778,14.4990234 L184.522778,3.1171875 C184.522778,2.79589683 184.509106,2.59252972 184.481762,2.50708008 C184.454418,2.42163043 184.377515,2.3344731 184.251049,2.24560547 C184.124584,2.15673784 183.955396,2.11230469 183.743481,2.11230469 L183.333325,2.11230469 C183.176097,2.11230469 183.097485,2.00805768 183.097485,1.79956055 C183.097485,1.59106341 183.176097,1.48681641 183.333325,1.48681641 L186.881176,1.48681641 C187.017896,1.48681641 187.096508,1.59106341 187.117016,1.79956055 C187.137524,2.00805768 187.058911,2.11230469 186.881176,2.11230469 L186.460766,2.11230469 C186.255687,2.11230469 186.105298,2.15502887 186.009594,2.24047852 C185.91389,2.32592816 185.847241,2.43701104 185.809643,2.57373047 C185.772045,2.7104499 185.753246,2.88134663 185.753246,3.08642578 L185.753246,14.4990234 C185.753246,14.847658 185.787426,15.1005852 185.855785,15.2578125 C185.924145,15.4150398 186.052318,15.5346676 186.240307,15.6166992 C186.428296,15.6987309 186.730783,15.7397461 187.147778,15.7397461 L188.15266,15.7397461 C188.494459,15.7397461 188.822581,15.6884771 189.137035,15.5859375 C189.45149,15.4833979 189.724925,15.3022474 189.957348,15.0424805 C190.189771,14.7827135 190.369213,14.4870622 190.495678,14.1555176 C190.622144,13.823973 190.740062,13.456545 190.849438,13.0532227 L191.034008,12.3251953 C191.075024,12.1748039 191.141674,12.0961914 191.233959,12.0893555 C191.326245,12.0825195 191.365551,12.161132 191.351879,12.3251953 L191.044262,16.3549805 Z" id="-AMG-S-65-L"></path>
                <path d="M18.6445312,39.8505373 L18.6445312,33.9447756 L18.5644531,29.5204592 C18.591146,29.4804199 18.6178384,29.4537275 18.6445312,29.440381 L18.9047852,29.5604982 L21.8276367,30.7416506 C21.8943688,30.7816898 21.9610999,30.8517575 22.027832,30.9518556 C22.0945641,31.0519538 22.1245931,31.1453773 22.1179199,31.2321291 C22.1112467,31.3188808 22.0545253,31.422314 21.9477539,31.5424318 L21.2070312,32.3832521 L21.2070312,39.8505373 L24.6103516,39.8505373 L24.6103516,32.7235842 L24.5102539,28.0189943 C24.5502932,27.9522622 24.5903318,27.9055504 24.6303711,27.8788576 L25.0107422,28.0189943 L27.6733398,28.9398928 C27.6866863,28.9532392 27.7233884,28.9832682 27.7834473,29.0299806 C27.8435062,29.0766931 27.8768717,29.1067221 27.8835449,29.1200685 C27.8902181,29.133415 27.8868816,29.1801267 27.8735352,29.2602053 C27.8601887,29.3402838 27.813477,29.4403804 27.7333984,29.5604982 L27.0527344,30.4813967 L27.0527344,39.8505373 L31.4370117,39.8505373 L31.4370117,32.4833498 L31.3569336,28.3793459 C31.4103193,28.2859209 31.4637042,28.2258629 31.5170898,28.1991701 L31.8974609,28.3393068 L34.5800781,29.3202638 C34.6735031,29.3603031 34.7435707,29.413688 34.7902832,29.4804201 C34.8369957,29.5471522 34.8503419,29.6172199 34.8303223,29.6906252 C34.8103026,29.7640305 34.7469081,29.8674637 34.6401367,30.0009279 L33.9594727,30.8817873 L33.9594727,39.8505373 L36.121582,39.8505373 L37.6030273,37.3681154 C37.6697594,37.2479976 37.7364906,37.1879396 37.8032227,37.1879396 C37.8299155,37.2012861 37.8899735,37.261344 37.9833984,37.3681154 L40.1254883,40.2709474 C40.1655275,40.3376795 40.2089028,40.42443 40.2556152,40.5312013 C40.3023277,40.6379727 40.3256836,40.7047038 40.3256836,40.7313967 C40.3123372,40.8648609 40.2456061,40.931592 40.1254883,40.931592 L33.9594727,40.931592 L33.9594727,51.6620607 L34.0395508,54.5048342 C33.9995115,54.6516448 33.9394535,54.8051263 33.859375,54.9652834 C33.7792965,55.1254404 33.5290548,55.2755854 33.1086426,55.4157228 C32.6882303,55.5558603 32.3245458,55.6192548 32.0175781,55.6059084 C31.7639961,55.6059084 31.6038415,55.5458504 31.5371094,55.4257326 C31.4703773,55.3056148 31.4370117,55.1387871 31.4370117,54.9252443 L31.4370117,52.7631349 L27.0527344,52.7631349 L27.0527344,54.9252443 C27.0527344,55.1120942 27.0126957,55.2989413 26.9326172,55.4857912 C26.8525387,55.6726411 26.6289895,55.8294592 26.2619629,55.9562502 C25.8949363,56.0830412 25.5546077,56.1497723 25.2409668,56.1564455 C24.9273259,56.1631187 24.7371423,56.1264166 24.6704102,56.0463381 C24.6036781,55.9662595 24.5436201,55.8194511 24.4902344,55.6059084 L24.6103516,51.1415529 L24.6103516,40.931592 L21.2070312,40.931592 L21.2070312,60.7309084 L35.1806641,60.6708498 L36.6420898,58.228467 C36.8022469,57.974885 36.9090167,57.8514324 36.9624023,57.8581056 C37.015788,57.8647789 37.1292309,57.9882314 37.3027344,58.228467 L39.2446289,61.1513185 C39.2713217,61.1913578 39.3280432,61.3114738 39.4147949,61.5116701 C39.5015467,61.7118664 39.431479,61.8119631 39.2045898,61.8119631 L21.2871094,61.8119631 L20.3862305,63.0932131 C20.1326485,63.4669129 19.9891766,63.6437503 19.9558105,63.6237306 C19.9224445,63.603711 19.8457037,63.5069509 19.7255859,63.3334474 L18.1240234,61.1513185 C18.0039056,61.0045079 17.9505208,60.8777188 17.9638672,60.7709474 C17.9638672,60.6374832 18.0172521,60.5173672 18.1240234,60.4105959 L18.6445312,59.8900881 L18.6445312,40.931592 L14.340332,40.931592 C14.1134429,40.931592 14,40.751418 14,40.3910646 C14,40.0307113 14.1134429,39.8505373 14.340332,39.8505373 L18.6445312,39.8505373 Z M31.4370117,51.6620607 L31.4370117,40.931592 L27.0527344,40.931592 L27.0527344,51.6620607 L31.4370117,51.6620607 Z M54.0786133,41.2318849 L49.2338867,41.2318849 L49.2338867,42.2929201 C49.2338867,42.7200056 49.0770686,43.0436514 48.7634277,43.2638674 C48.4497868,43.4840833 48.0861023,43.5941896 47.6723633,43.5941896 C47.4321277,43.6075361 47.2619634,43.5674974 47.1618652,43.4740724 C47.0617671,43.3806475 46.9783532,43.2471853 46.9116211,43.0736818 L47.0317383,38.4892092 L47.0317383,31.7226076 L46.9516602,28.119092 C46.9916994,28.0657063 47.025065,28.0323407 47.0517578,28.0189943 C47.0784507,28.0056479 47.2853171,28.1391101 47.6723633,28.4193849 L49.2338867,29.6005373 L61.7060547,29.6005373 L62.4267578,28.2992678 C62.5335292,28.1257643 62.6102699,28.0323407 62.6569824,28.0189943 C62.7036949,28.0056479 62.860513,28.0990714 63.1274414,28.2992678 L64.9091797,29.8007326 C65.1227224,30.0009289 65.2294922,30.1811029 65.2294922,30.3412599 C65.2294922,30.4613777 65.1694342,30.5948399 65.0493164,30.7416506 L64.4287109,31.4423342 L64.4287109,38.9696779 L64.5688477,41.7523928 C64.5421548,41.9792819 64.4887699,42.1794752 64.4086914,42.3529787 C64.3286129,42.5264822 64.1217465,42.7166658 63.7880859,42.9235353 C63.4544254,43.1304049 63.0607119,43.2371746 62.6069336,43.2438478 C62.1531553,43.250521 61.9262695,42.973587 61.9262695,42.4130373 L61.9262695,41.2318849 L56.6811523,41.2318849 L57.5620117,42.0927248 C57.6287438,42.1594569 57.6821287,42.2361977 57.722168,42.3229494 C57.7622072,42.4097011 57.7822266,42.4730957 57.7822266,42.5131349 C57.7688801,42.579867 57.7455243,42.639925 57.7121582,42.6933107 C57.6787922,42.7466964 57.6287438,42.7733888 57.5620117,42.7733888 L57.1416016,42.7733888 C58.3027402,44.5885021 59.8675846,45.9798456 61.8361816,46.9474611 C63.8047787,47.9150766 66.0235879,48.3988771 68.4926758,48.3988771 L69.1132812,48.3988771 C69.1666669,48.3988771 69.2167153,48.4255696 69.2634277,48.4789553 C69.3101402,48.5323409 69.3334961,48.5957355 69.3334961,48.6691408 C69.3334961,48.7425461 69.2600919,48.8393062 69.1132812,48.959424 L68.7929688,49.2196779 C68.2057262,49.7001491 67.7886568,50.2006323 67.541748,50.7211428 C67.2948393,51.2416532 67.1313481,51.6587226 67.0512695,51.9723635 C66.971191,52.2860043 66.9211427,52.4795245 66.901123,52.5529299 C66.8811034,52.6263352 66.8377282,52.6563642 66.7709961,52.6430178 C66.5307605,52.6430178 65.9335171,52.4194686 64.979248,51.9723635 C64.024979,51.5252584 62.9873103,50.9013225 61.8662109,50.1005373 C61.6393218,50.3274264 61.4391285,50.5676584 61.265625,50.8212404 L61.265625,60.1703615 L61.3457031,62.8729982 C61.1588532,63.6871299 60.7384473,64.0975262 60.0844727,64.1041994 C59.430498,64.1108726 59.0568039,64.0574877 58.9633789,63.9440431 C58.869954,63.8305986 58.7965497,63.6937998 58.7431641,63.5336428 L58.8432617,60.0102053 L58.8432617,51.9623537 L58.6831055,48.8393068 C58.7765304,48.7992676 58.930012,48.8126138 59.1435547,48.8793459 L61.1254883,49.6200685 C60.2846638,48.872669 59.630699,48.1786655 59.1635742,47.5380373 C58.6964495,46.8974091 58.2560242,46.2067422 57.8422852,45.4660158 C57.4285461,44.7252894 57.0281595,43.8677948 56.6411133,42.893506 C54.8126536,44.9488549 52.9708752,46.7839602 51.1157227,48.3988771 L53.6982422,49.4599123 C53.8317064,49.5266444 53.9251299,49.5933755 53.9785156,49.6601076 C54.0319013,49.7268397 54.0585938,49.8002439 54.0585938,49.8803224 C54.0585938,49.960401 53.9651702,50.0938632 53.7783203,50.2807131 L53.3579102,50.6811037 C53.3312173,51.2283069 53.281169,52.2125907 53.2077637,53.6339846 C53.1343584,55.0553784 52.9608575,56.273221 52.6872559,57.287549 C52.4136542,58.301877 52.0299504,59.1927372 51.5361328,59.9601564 C51.0423152,60.7275756 50.3116097,61.4482715 49.3439941,62.1222658 C48.3763786,62.7962601 47.4121142,63.3334454 46.4511719,63.7338381 L45.6904297,64.0541506 C45.5836583,64.1075363 45.4868982,64.1308921 45.4001465,64.1242189 C45.3133947,64.1175457 45.2600099,64.0875167 45.2399902,64.034131 C45.2199706,63.9807454 45.2066244,63.9407067 45.1999512,63.9140138 C45.193278,63.887321 45.2132973,63.8339361 45.2600098,63.7538576 C45.3067222,63.6737791 45.3767899,63.6003749 45.4702148,63.5336428 L46.3110352,62.9530763 C48.1261484,61.7252056 49.2739234,60.4606512 49.7543945,59.1593752 C50.2348657,57.8580991 50.525146,56.7703822 50.6252441,55.8961916 C50.7253423,55.022001 50.8020831,53.9709861 50.8554688,52.7431154 C50.9088544,51.5152447 50.9288738,50.8212412 50.9155273,50.6610842 L50.8154297,48.6791506 C48.98697,50.1606033 46.931652,51.5018985 44.6494141,52.7030763 L43.7485352,53.1835451 C43.6150709,53.2502772 43.5116377,53.2803062 43.4382324,53.273633 C43.3648271,53.2669598 43.328125,53.2436039 43.328125,53.2035646 L43.328125,53.0033693 C43.328125,52.9099444 43.388183,52.8098477 43.5083008,52.7030763 L44.4892578,51.9623537 C45.4635465,51.2149541 46.1075017,50.7077977 46.4211426,50.4408693 C46.7347835,50.1739409 47.3954214,49.5166395 48.4030762,48.4689455 C49.4107309,47.4212514 50.4083609,46.2634668 51.3959961,44.9955568 C52.3836312,43.7276468 53.0242498,42.8734887 53.3178711,42.4330568 L53.878418,41.5521974 L54.0786133,41.2318849 Z M54.3388672,35.0058107 L54.3388672,30.6215334 L49.2338867,30.6215334 L49.2338867,35.0058107 L54.3388672,35.0058107 Z M54.3388672,40.2108888 L54.3388672,36.0268068 L49.2338867,36.0268068 L49.2338867,40.2108888 L54.3388672,40.2108888 Z M61.9262695,35.0058107 L61.9262695,30.6215334 L56.9614258,30.6215334 L56.6811523,31.021924 L56.6811523,35.0058107 L61.9262695,35.0058107 Z M61.9262695,40.2108888 L61.9262695,36.0268068 L56.6811523,36.0268068 L56.6811523,40.2108888 L61.9262695,40.2108888 Z M105.127441,42.9335451 L92.5351562,42.9335451 L92.5351562,56.346631 C92.5351562,56.7470237 92.6586088,57.1207178 92.9055176,57.4677248 C93.1524264,57.8147317 94.0232673,58.0883293 95.5180664,58.2885256 C97.0128655,58.4887219 98.9080289,58.5487799 101.203613,58.4687013 C104.660336,58.36193 106.785722,58.211785 107.579834,58.0182619 C108.373946,57.8247388 109.031247,57.4376984 109.551758,56.8571291 C110.072268,56.2765598 110.592771,55.0320247 111.113281,53.1234865 L111.813965,50.4408693 C111.840658,50.3474444 111.897379,50.2440112 111.984131,50.1305666 C112.070883,50.017122 112.144287,50.0204586 112.204346,50.1405763 C112.264405,50.2606941 112.28776,50.3874832 112.274414,50.5209474 L111.914062,53.6239748 C111.780598,54.6383028 111.737223,55.3456525 111.783936,55.7460451 C111.830648,56.1464377 111.907389,56.466747 112.01416,56.7069826 L112.514648,57.6879396 C112.634766,57.9815609 112.701497,58.2785143 112.714844,58.5788088 C112.72819,58.8791032 112.674805,59.1627104 112.554688,59.4296388 C112.354491,59.9368028 111.843998,60.3972475 111.023193,60.8109865 C110.202388,61.2247256 108.634208,61.4949865 106.318604,61.6217775 C104.002999,61.7485685 102.364751,61.8119631 101.403809,61.8119631 C100.095859,61.8253095 98.3441679,61.7552418 96.1486816,61.601758 C93.9531954,61.4482741 92.4817746,61.1279649 91.734375,60.6408205 C90.9869754,60.1536761 90.5365405,59.6565294 90.3830566,59.1493654 C90.2295728,58.6422014 90.152832,58.014929 90.152832,57.2675295 L90.152832,38.5893068 L90.0527344,34.6854982 C90.0794272,34.6187661 90.1061197,34.5787275 90.1328125,34.565381 C90.1595053,34.5520346 90.2796213,34.5720539 90.4931641,34.6254396 L92.9555664,35.3661623 C93.2625341,35.4595872 93.4460446,35.5430011 93.5061035,35.6164064 C93.5661624,35.6898117 93.5961914,35.7732256 93.5961914,35.8666506 C93.5961914,35.9600755 93.4560561,36.173615 93.1757812,36.5072756 L92.5351562,37.2479982 L92.5351562,41.8925295 L105.127441,41.8925295 L105.127441,31.8227053 L89.4321289,31.8227053 C89.2185862,31.8227053 89.1051433,31.6658872 89.0917969,31.3522463 C89.0784505,31.0386054 89.1918933,30.8284024 89.4321289,30.721631 L104.887207,30.721631 L105.547852,29.740674 C105.81478,29.3402814 105.974935,29.1300784 106.02832,29.1100588 C106.081706,29.0900391 106.315265,29.2468572 106.729004,29.5805178 L108.17041,30.8017092 C108.450685,31.0552912 108.620849,31.2154458 108.680908,31.2821779 C108.740967,31.34891 108.777669,31.4156411 108.791016,31.4823732 C108.804362,31.5491053 108.6709,31.769318 108.390625,32.1430178 L107.850098,32.8637209 L107.850098,40.5912599 L107.930176,44.2348146 C107.87679,44.4617038 107.803386,44.655224 107.709961,44.815381 C107.616536,44.9755381 107.372967,45.1223465 106.979248,45.2558107 C106.585529,45.3892749 106.248537,45.456006 105.968262,45.456006 C105.741373,45.4693525 105.544516,45.412631 105.377686,45.28584 C105.210855,45.159049 105.127441,44.9888847 105.127441,44.775342 L105.127441,42.9335451 Z M131.73291,47.0175295 L125.887207,47.0175295 C125.673664,47.0175295 125.556885,46.8373555 125.536865,46.4770021 C125.516846,46.1166488 125.633625,45.9364748 125.887207,45.9364748 L131.73291,45.9364748 L131.73291,41.3920412 L131.632812,36.9276857 C131.686198,36.8476072 131.726237,36.8008954 131.75293,36.787549 C131.779623,36.7742026 131.893065,36.7942219 132.093262,36.8476076 L134.895996,37.6684084 C135.02946,37.7217941 135.119547,37.7818521 135.16626,37.8485842 C135.212972,37.9153163 135.232992,37.9987301 135.226318,38.0988283 C135.219645,38.1989265 135.109539,38.3690908 134.895996,38.6093263 L134.235352,39.350049 L134.235352,45.9364748 L136.617676,45.9364748 L137.898926,43.8544435 C138.045736,43.614208 138.165852,43.4907554 138.259277,43.4840822 C138.352702,43.477409 138.512857,43.6008615 138.739746,43.8544435 L140.501465,45.9364748 C140.661622,46.1233247 140.761719,46.2734697 140.801758,46.3869142 C140.841797,46.5003588 140.865153,46.633821 140.871826,46.7873049 C140.878499,46.9407887 140.741701,47.0175295 140.461426,47.0175295 L134.235352,47.0175295 L134.235352,59.4296388 L138.359375,59.4296388 L139.780762,57.0473146 C139.927572,56.7937326 140.061035,56.6669435 140.181152,56.6669435 C140.274577,56.68029 140.421386,56.8070791 140.621582,57.0473146 L142.323242,59.2694826 C142.523439,59.536411 142.643554,59.7232581 142.683594,59.8300295 C142.723633,59.9368008 142.746989,60.070263 142.753662,60.2304201 C142.760335,60.3905771 142.616863,60.4706545 142.323242,60.4706545 L125.506836,60.4706545 C125.360025,60.297151 125.276611,60.0802749 125.256592,59.8200197 C125.236572,59.5597645 125.346678,59.4296388 125.586914,59.4296388 L131.73291,59.4296388 L131.73291,47.0175295 Z M125.046387,34.9857912 L117.619141,34.9857912 C117.405598,34.9857912 117.295492,34.8056172 117.288818,34.4452638 C117.282145,34.0849105 117.392251,33.9047365 117.619141,33.9047365 L125.366699,33.9047365 C125.793785,32.2898196 126.094075,31.0619673 126.267578,30.2211428 L126.62793,28.3593263 L126.768066,27.3783693 C126.808106,27.3383301 126.841471,27.3149742 126.868164,27.308301 C126.894857,27.3016277 127.001627,27.3383299 127.188477,27.4184084 L130.231445,28.8197756 C130.458334,28.9398934 130.575114,29.0933749 130.581787,29.2802248 C130.58846,29.4670747 130.471681,29.6539218 130.231445,29.8407717 L129.470703,30.4213381 C129.137043,31.5557838 128.770022,32.716905 128.369629,33.9047365 L137.898926,33.9047365 L139.240234,31.6225099 C139.373699,31.3956208 139.487141,31.2855145 139.580566,31.2921877 C139.673991,31.2988609 139.814127,31.4089672 140.000977,31.6225099 L142.042969,33.9848146 C142.229819,34.2117038 142.326579,34.435253 142.333252,34.6554689 C142.339925,34.8756849 142.223146,34.9857912 141.98291,34.9857912 L128.029297,34.9857912 C127.962565,35.1726411 127.468755,36.4738976 126.547852,38.8895998 L124.986328,42.5731935 L125.266602,42.7733888 C125.333334,42.840121 125.376709,42.9402176 125.396729,43.0736818 C125.416748,43.207146 125.333334,43.3539545 125.146484,43.5141115 L124.625977,43.9745607 L124.625977,59.9301271 L124.666016,63.3134279 C124.599284,63.5937027 124.465821,63.8572906 124.265625,64.1041994 C124.065429,64.3511082 123.578292,64.4678876 122.804199,64.4545412 C122.604003,64.4545412 122.460531,64.4145025 122.373779,64.334424 C122.287028,64.2543455 122.203614,64.0875177 122.123535,63.8339357 L122.243652,58.8891115 L122.243652,47.4179201 C120.602043,49.7268509 119.584393,51.1382138 119.190674,51.652051 C118.796954,52.1658882 118.379885,52.6763811 117.939453,53.1835451 L117.19873,54.0443849 C117.105306,54.1511563 117.025228,54.2012046 116.958496,54.1945314 C116.891764,54.1878582 116.845052,54.1678389 116.818359,54.1344728 C116.791667,54.1011068 116.77832,54.0277026 116.77832,53.914258 C116.77832,53.8008134 116.831705,53.6506684 116.938477,53.4638185 L117.619141,52.4027834 C117.779298,52.1758942 118.046222,51.7154496 118.419922,51.0214357 L119.541016,48.959424 C120.00814,48.0652138 120.90901,46.1500311 122.243652,43.2138185 L122.143555,42.3329592 C122.090169,41.7991023 122.066813,41.4387544 122.073486,41.2519045 C122.08016,41.0650546 122.196939,41.0450352 122.423828,41.1918459 L122.864258,41.5121584 C123.358075,40.1641699 123.728433,39.1265012 123.975342,38.3991213 C124.222251,37.6717413 124.579262,36.533976 125.046387,34.9857912 Z M167.787598,37.4081545 L158.878906,37.4081545 C158.785481,37.5816579 158.725423,37.708447 158.69873,37.7885256 L157.577637,40.3710451 C156.883623,41.9325763 156.122888,43.42068 155.29541,44.8354006 L154.614746,46.0165529 C154.481282,46.2300956 154.384522,46.2868171 154.324463,46.1867189 C154.264404,46.0866208 154.231038,46.0132166 154.224365,45.9665041 C154.217692,45.9197916 154.234375,45.8430508 154.274414,45.7362795 L154.774902,44.2147951 C155.949387,40.5178365 156.746824,37.3681284 157.167236,34.7655763 C157.587649,32.1630243 157.824544,30.5814971 157.87793,30.0209474 L157.998047,28.7396974 L158.058105,28.159131 C158.071452,28.1324382 158.094808,28.1124189 158.128174,28.0990724 C158.16154,28.085726 158.358397,28.1724765 158.71875,28.3593263 L161.501465,29.8407717 C161.608236,29.9075038 161.68164,29.9675618 161.72168,30.0209474 C161.761719,30.0743331 161.781738,30.1510739 161.781738,30.2511721 C161.781738,30.3512702 161.715007,30.4480303 161.581543,30.5414553 L160.880859,31.1220217 C160.306963,33.0439063 159.766441,34.778915 159.259277,36.3270998 L167.787598,36.3270998 L168.648438,35.0258303 C168.728516,34.892366 168.795247,34.8256349 168.848633,34.8256349 C168.902018,34.8389814 168.982096,34.9057125 169.088867,35.0258303 L171.591309,37.9887209 C171.791505,38.2423029 171.884928,38.4658521 171.871582,38.6593752 C171.858236,38.8528983 171.791505,39.0063798 171.671387,39.1198244 C171.551269,39.233269 171.267662,39.293327 170.820557,39.3000002 C170.373452,39.3066734 169.876305,39.5135398 169.329102,39.9206056 C168.781898,40.3276715 168.214684,41.0783964 167.627441,42.1728029 L167.046875,43.2338381 C166.913411,43.5007665 166.809978,43.5808438 166.736572,43.4740724 C166.663167,43.3673011 166.623128,43.2805506 166.616455,43.2138185 C166.609782,43.1470864 166.603109,43.090365 166.596436,43.0436525 C166.589762,42.99694 166.599772,42.9468917 166.626465,42.893506 L166.906738,41.6322756 C167.01351,41.1784973 167.307127,39.770471 167.787598,37.4081545 Z M159.659668,47.6981935 C158.391758,50.914681 157.42082,53.1134708 156.746826,54.2946291 C156.072832,55.4757873 155.395511,56.6202258 154.714844,57.7279787 L154.074219,58.7689943 C153.940755,58.9825371 153.843994,59.042595 153.783936,58.9491701 C153.723877,58.8557452 153.690511,58.7656582 153.683838,58.6789064 C153.677165,58.5921547 153.700521,58.4753753 153.753906,58.3285646 L154.254395,57.0473146 C154.441244,56.5268042 154.751544,55.5992419 155.185303,54.2645998 C155.619061,52.9299577 155.982746,51.5686432 156.276367,50.1806154 C156.569988,48.7925876 156.770182,47.7716018 156.876953,47.1176271 L157.197266,45.115674 L157.237305,44.6552248 C157.277344,44.6285319 157.377441,44.6618975 157.537598,44.7553224 L160.340332,46.5170412 C160.527182,46.6505054 160.623942,46.7873042 160.630615,46.9274416 C160.637288,47.067579 160.540528,47.1910315 160.340332,47.2978029 L159.659668,47.6981935 Z M165.505371,46.4369631 C165.558757,46.3969238 165.598795,46.3735679 165.625488,46.3668947 C165.652181,46.3602215 165.865721,46.4970203 166.266113,46.7772951 C166.666506,47.0575699 167.380529,47.7048616 168.408203,48.7191896 C169.435878,49.7335176 170.236651,50.9580334 170.810547,52.3927736 C171.384443,53.8275139 171.65804,55.0853952 171.631348,56.1664553 C171.604655,56.9138548 171.447837,57.5444638 171.160889,58.058301 C170.873941,58.5721382 170.503583,58.8157067 170.049805,58.7890138 C169.542641,58.7756674 169.168947,58.5220892 168.928711,58.0282717 C168.688475,57.5344541 168.504965,56.6435939 168.378174,55.3556642 C168.251383,54.0677346 168.047853,52.9066134 167.767578,51.8722658 C167.487303,50.8379182 167.247071,50.0938664 167.046875,49.6400881 C166.846679,49.1863098 166.573081,48.6658071 166.226074,48.0785646 C165.879067,47.4913221 165.652182,47.1376473 165.54541,47.0175295 C165.438639,46.8974117 165.381917,46.797315 165.375244,46.7172365 C165.368571,46.637158 165.411946,46.5437344 165.505371,46.4369631 Z M164.063965,42.0927248 L164.063965,60.8710451 C164.063965,61.2313985 163.997234,61.6518044 163.86377,62.1322756 C163.730305,62.6127467 163.366621,62.9797678 162.772705,63.2333498 C162.178789,63.4869318 161.781739,63.6270671 161.581543,63.6537599 L161.161133,63.7338381 C160.974283,63.7738773 160.857503,63.7772139 160.810791,63.7438478 C160.764079,63.7104818 160.727376,63.6404141 160.700684,63.5336428 L160.42041,62.6127443 C160.300292,62.1856588 160.076743,61.7685895 159.749756,61.3615236 C159.422769,60.9544578 159.09245,60.6641775 158.758789,60.490674 L157.657715,59.9501467 C157.510904,59.896761 157.444173,59.776645 157.45752,59.5897951 C157.45752,59.4963702 157.484212,59.4196294 157.537598,59.3595705 C157.590983,59.2995116 157.651041,59.2694826 157.717773,59.2694826 L158.758789,59.4296388 C159.759771,59.5897959 160.407062,59.656527 160.700684,59.6298342 C161.047691,59.6164877 161.294596,59.509718 161.441406,59.3095217 C161.588217,59.1093253 161.661621,58.8891127 161.661621,58.6488771 L161.661621,43.7543459 L161.541504,39.1698732 C161.59489,39.1431804 161.634928,39.1264976 161.661621,39.1198244 C161.688314,39.1131512 161.815103,39.1498533 162.041992,39.2299318 L164.944824,40.290967 C165.118328,40.3710455 165.208415,40.4811518 165.215088,40.6212892 C165.221761,40.7614267 165.158367,40.8982254 165.024902,41.0316896 L164.063965,42.0927248 Z M149.910156,41.4721193 C148.535475,44.2882141 147.534508,46.1700312 146.907227,47.1176271 L146.466797,47.7782717 C146.360026,47.9250823 146.276612,47.9584478 146.216553,47.8783693 C146.156494,47.7982908 146.126465,47.7082038 146.126465,47.6081056 C146.126465,47.5080075 146.146484,47.4045743 146.186523,47.2978029 L146.586914,46.3568849 C147.294274,44.6351966 148.048336,42.2362135 148.849121,39.1598635 C149.649906,36.0835134 150.180419,33.8713774 150.440674,32.5233888 C150.700929,31.1754003 150.891113,30.0743371 151.01123,29.2201662 L151.171387,28.0390138 L151.231445,27.5585451 C151.258138,27.5318523 151.281494,27.5118329 151.301514,27.4984865 C151.321533,27.4851401 151.458332,27.5451981 151.711914,27.6786623 L154.714844,29.440381 C154.861654,29.533806 154.931722,29.6405757 154.925049,29.7606935 C154.918376,29.8808113 154.848308,29.9875811 154.714844,30.081006 L153.954102,30.6215334 C153.220048,32.8236928 152.47266,34.9791075 151.711914,37.087842 L152.893066,37.8285646 C152.986491,37.8952967 153.066569,37.9653644 153.133301,38.0387697 C153.200033,38.112175 153.230062,38.1688965 153.223389,38.2089357 C153.216715,38.248975 153.186686,38.3190426 153.133301,38.4191408 C153.079915,38.519239 153.019857,38.6093259 152.953125,38.6894045 L152.392578,39.3700685 L152.392578,58.8891115 L152.512695,63.0731935 C152.45931,63.2733898 152.389242,63.4468907 152.30249,63.5937013 C152.215738,63.740512 151.935468,63.890657 151.46167,64.0441408 C150.987872,64.1976246 150.637534,64.2610192 150.410645,64.2343263 C150.210448,64.2209799 150.076986,64.1709316 150.010254,64.0841799 C149.943522,63.9974281 149.89681,63.8539563 149.870117,63.6537599 L150.010254,58.6889162 L150.010254,44.6352053 L149.910156,41.4721193 Z M176.375488,49.299756 C176.215331,49.0995597 176.141927,48.8860202 176.155273,48.659131 C176.16862,48.4322419 176.288736,48.318799 176.515625,48.318799 L180.15918,48.318799 L180.15918,35.5663576 L180.039062,31.322217 C180.079102,31.2821777 180.105794,31.2588218 180.119141,31.2521486 C180.132487,31.2454754 180.252603,31.3155431 180.479492,31.4623537 L182.72168,33.0839357 L184.483398,33.0839357 C184.92383,31.1353583 185.204101,29.7206589 185.324219,28.8397951 L185.424316,27.9589357 L185.524414,27.0180178 C185.551107,26.9779785 185.657877,27.0046709 185.844727,27.0980959 L189.027832,28.8397951 C189.14795,28.9198736 189.211344,29.0199703 189.218018,29.1400881 C189.224691,29.2602059 189.141277,29.3603025 188.967773,29.440381 L188.166992,29.8808107 C187.379553,30.9752172 186.605473,32.0429149 185.844727,33.0839357 L191.590332,33.0839357 L192.51123,31.4623537 C192.55127,31.3822752 192.624674,31.3822752 192.731445,31.4623537 L195.11377,33.4843263 C195.273927,33.631137 195.340658,33.7445799 195.313965,33.8246584 C195.287272,33.9047369 195.26058,33.9581218 195.233887,33.9848146 L194.272949,34.9057131 L194.272949,45.756299 C194.700035,45.1557101 195.300615,44.2748595 196.074707,43.1137209 C196.848799,41.9525823 197.34261,41.1384628 197.556152,40.6713381 L197.996582,39.690381 L198.316895,38.9696779 C198.330241,38.9696779 198.410318,39.0564283 198.557129,39.2299318 L201.019531,42.3329592 C201.112956,42.4664234 201.159668,42.5865394 201.159668,42.6933107 C201.132975,42.8801606 200.999513,42.9735842 200.759277,42.9735842 L199.998535,42.9735842 C197.516101,45.9231432 196.03467,47.6448057 195.554199,48.1386232 L194.272949,49.4799318 L194.272949,61.7519045 C194.272949,62.339147 194.159506,62.8763324 193.932617,63.3634767 C193.705728,63.8506211 193.111821,64.1942863 192.150879,64.3944826 L191.590332,64.5145998 L191.310059,64.5946779 C191.203287,64.5813315 191.12321,64.4879079 191.069824,64.3144045 L191.009766,64.0541506 L190.749512,63.353467 C190.616048,62.9931136 190.362469,62.5994001 189.98877,62.1723146 C189.61507,61.7452292 189.29476,61.4783047 189.027832,61.3715334 L188.126953,61.0312013 C187.940103,60.9644692 187.853353,60.8443533 187.866699,60.6708498 C187.866699,60.4839999 187.966796,60.3905763 188.166992,60.3905763 L189.10791,60.4506349 L190.889648,60.5307131 C191.33008,60.5574059 191.586995,60.4973479 191.6604,60.3505373 C191.733806,60.2037267 191.770508,59.9701678 191.770508,59.6498537 L191.770508,52.0624513 C190.742833,52.9433151 189.685145,53.8074829 188.597412,54.6549806 C187.509679,55.5024784 185.537775,56.6969651 182.681641,58.2384767 C179.825507,59.7799884 177.683438,60.7375797 176.255371,61.1112795 L175.274414,61.3715334 C175.180989,61.3982262 175.104248,61.38488 175.044189,61.3314943 C174.984131,61.2781086 174.954102,61.1946948 174.954102,61.0812502 C174.954102,60.9678056 175.020833,60.8777186 175.154297,60.8109865 L176.075195,60.3905763 C176.635745,60.1503408 177.643385,59.6031457 179.098145,58.7489748 C180.552904,57.8948038 182.364654,56.6402591 184.533447,54.9853029 C186.702241,53.3303467 188.300451,51.9757053 189.328125,50.9213381 L190.869629,49.3798342 L176.515625,49.3798342 L176.375488,49.299756 Z M191.770508,38.0487795 L191.770508,34.1850099 L182.541504,34.1850099 L182.541504,38.0487795 L191.770508,38.0487795 Z M191.770508,43.0336428 L191.770508,39.1098146 L182.541504,39.1098146 L182.541504,43.0336428 L191.770508,43.0336428 Z M191.770508,48.318799 L191.770508,44.1146974 L182.541504,44.1146974 L182.541504,48.318799 L191.770508,48.318799 Z M215.333008,60.0302248 L215.333008,62.8129396 C215.333008,63.587032 214.805832,63.9940918 213.751465,64.034131 C213.364419,64.0608239 213.127523,64.0007659 213.040771,63.8539553 C212.95402,63.7071446 212.903971,63.5269706 212.890625,63.3134279 L212.990723,59.0692873 L212.990723,50.5609865 L212.870605,46.4169435 C212.950684,46.2834793 213.014079,46.2134117 213.060791,46.2067385 C213.107503,46.2000652 213.237629,46.2701329 213.451172,46.4169435 L215.333008,47.8583498 L224.161621,47.8583498 L224.62207,46.9975099 C224.902345,46.4769995 225.099202,46.2200848 225.212646,46.226758 C225.326091,46.2334312 225.536294,46.3835762 225.843262,46.6771974 L226.864258,47.6981935 C227.184572,48.0318541 227.384765,48.2587398 227.464844,48.3788576 C227.544922,48.4989754 227.581624,48.6057452 227.574951,48.6991701 C227.568278,48.792595 227.464845,48.972769 227.264648,49.2396974 L226.724121,49.940381 L226.724121,57.8080568 L226.824219,62.1723146 C226.74414,62.439243 226.650717,62.6394364 226.543945,62.7729006 C226.437174,62.9063648 226.236981,63.0264808 225.943359,63.1332521 C225.649738,63.2400235 225.376141,63.2867353 225.122559,63.2733888 C224.562009,63.2733888 224.281738,63.0131375 224.281738,62.4926271 L224.281738,60.0302248 L215.333008,60.0302248 Z M224.281738,58.9691896 L224.281738,48.9794435 L215.333008,48.9794435 L215.333008,58.9691896 L224.281738,58.9691896 Z M210.908691,40.1308107 L225.562988,40.1308107 L226.36377,38.6493654 C226.750816,37.9019658 226.997721,37.5449544 227.104492,37.5783205 C227.211264,37.6116865 227.364745,37.7418122 227.564941,37.9687013 L229.166504,39.9306154 C229.500164,40.3710473 229.666992,40.6780104 229.666992,40.8515138 C229.666992,41.0917494 229.500164,41.2118654 229.166504,41.2118654 L210.908691,41.2118654 C210.895345,41.5855652 210.885335,41.8558262 210.878662,42.0226564 C210.871989,42.1894867 210.858643,42.9168557 210.838623,44.2047853 C210.818603,45.4927149 210.728516,47.1409732 210.568359,49.1496096 C210.408202,51.1582459 210.074547,53.0433996 209.567383,54.8051271 C209.060219,56.5668547 208.493004,58.0716411 207.865723,59.3195314 C207.238441,60.5674218 206.777996,61.4315896 206.484375,61.9120607 L205.86377,62.9530763 C205.516763,63.5403189 205.269858,63.8205895 205.123047,63.7938967 C205.016276,63.7805502 204.962891,63.7138191 204.962891,63.5937013 C204.962891,63.4735836 204.976237,63.3534676 205.00293,63.2333498 L205.42334,62.3725099 L205.963867,60.9311037 C206.350913,59.8900829 206.717934,58.7222886 207.064941,57.4276857 C207.411948,56.1330829 207.715575,54.4714784 207.97583,52.4428224 C208.236085,50.4141665 208.379557,48.6824943 208.40625,47.2477541 C208.432943,45.8130138 208.446289,44.4683821 208.446289,43.2138185 C208.432943,41.2652411 208.422933,39.6803774 208.41626,38.4591799 C208.409587,37.2379824 208.386231,36.0268128 208.346191,34.8256349 L208.206055,30.9218263 C208.192708,30.9218263 208.189372,30.8951339 208.196045,30.8417482 C208.202718,30.7883625 208.209391,30.7449873 208.216064,30.7116213 C208.222738,30.6782552 208.242757,30.6548993 208.276123,30.6415529 C208.309489,30.6282065 208.432942,30.6749183 208.646484,30.7816896 L210.908691,32.0829592 C212.763844,31.8694164 215.026028,31.3455773 217.695312,30.511426 C220.364597,29.6772747 222.139644,28.999954 223.020508,28.4794435 L224.121582,27.8388185 L224.281738,27.6986818 C224.335124,27.6986818 224.481932,27.8388171 224.722168,28.119092 L226.864258,30.9218263 C227.064454,31.1887548 227.157878,31.3889481 227.144531,31.5224123 C227.131185,31.6558765 227.097819,31.7226076 227.044434,31.7226076 L225.282715,31.8827638 C220.104304,32.363235 215.31301,32.7035636 210.908691,32.9037599 L210.908691,40.1308107 Z" id="-"></path>
            </g>
        </g>
    </g>
</svg>